<svg width="308" height="144" viewBox="0 0 308 144" fill="none" xmlns="http://www.w3.org/2000/svg">
<path d="M31.67 141.18C31.19 141.18 30.788 141.092 30.464 140.916C30.14 140.736 29.894 140.5 29.726 140.208C29.562 139.912 29.48 139.588 29.48 139.236C29.48 138.908 29.538 138.62 29.654 138.372C29.77 138.124 29.942 137.914 30.17 137.742C30.398 137.566 30.678 137.424 31.01 137.316C31.298 137.232 31.624 137.158 31.988 137.094C32.352 137.03 32.734 136.97 33.134 136.914C33.538 136.858 33.938 136.802 34.334 136.746L33.878 136.998C33.886 136.49 33.778 136.114 33.554 135.87C33.334 135.622 32.954 135.498 32.414 135.498C32.074 135.498 31.762 135.578 31.478 135.738C31.194 135.894 30.996 136.154 30.884 136.518L29.714 136.158C29.874 135.602 30.178 135.16 30.626 134.832C31.078 134.504 31.678 134.34 32.426 134.34C33.006 134.34 33.51 134.44 33.938 134.64C34.37 134.836 34.686 135.148 34.886 135.576C34.99 135.788 35.054 136.012 35.078 136.248C35.102 136.484 35.114 136.738 35.114 137.01V141H34.004V139.518L34.22 139.71C33.952 140.206 33.61 140.576 33.194 140.82C32.782 141.06 32.274 141.18 31.67 141.18ZM31.892 140.154C32.248 140.154 32.554 140.092 32.81 139.968C33.066 139.84 33.272 139.678 33.428 139.482C33.584 139.286 33.686 139.082 33.734 138.87C33.802 138.678 33.84 138.462 33.848 138.222C33.86 137.982 33.866 137.79 33.866 137.646L34.274 137.796C33.878 137.856 33.518 137.91 33.194 137.958C32.87 138.006 32.576 138.054 32.312 138.102C32.052 138.146 31.82 138.2 31.616 138.264C31.444 138.324 31.29 138.396 31.154 138.48C31.022 138.564 30.916 138.666 30.836 138.786C30.76 138.906 30.722 139.052 30.722 139.224C30.722 139.392 30.764 139.548 30.848 139.692C30.932 139.832 31.06 139.944 31.232 140.028C31.404 140.112 31.624 140.154 31.892 140.154Z" fill="#828282"/>
<path d="M32.346 96V88.74L30.72 89.73V88.332L32.346 87.36H33.624V96H32.346Z" fill="#828282"/>
<path d="M0 111C0 106.582 3.58172 103 8 103H57C61.4183 103 65 106.582 65 111V124H0V111Z" fill="#FABE7A"/>
<path d="M113.882 141.18C113.262 141.18 112.742 141.03 112.322 140.73C111.902 140.426 111.584 140.016 111.368 139.5C111.152 138.984 111.044 138.402 111.044 137.754C111.044 137.106 111.15 136.524 111.362 136.008C111.578 135.492 111.894 135.086 112.31 134.79C112.73 134.49 113.246 134.34 113.858 134.34C114.466 134.34 114.99 134.49 115.43 134.79C115.874 135.086 116.216 135.492 116.456 136.008C116.696 136.52 116.816 137.102 116.816 137.754C116.816 138.402 116.696 138.986 116.456 139.506C116.22 140.022 115.882 140.43 115.442 140.73C115.006 141.03 114.486 141.18 113.882 141.18ZM110.834 141V132.36H112.094V136.338H111.95V141H110.834ZM113.708 140.046C114.108 140.046 114.438 139.944 114.698 139.74C114.962 139.536 115.158 139.262 115.286 138.918C115.418 138.57 115.484 138.182 115.484 137.754C115.484 137.33 115.418 136.946 115.286 136.602C115.158 136.258 114.96 135.984 114.692 135.78C114.424 135.576 114.082 135.474 113.666 135.474C113.274 135.474 112.95 135.57 112.694 135.762C112.442 135.954 112.254 136.222 112.13 136.566C112.01 136.91 111.95 137.306 111.95 137.754C111.95 138.202 112.01 138.598 112.13 138.942C112.25 139.286 112.44 139.556 112.7 139.752C112.96 139.948 113.296 140.046 113.708 140.046Z" fill="#828282"/>
<path d="M113.402 40.18C112.958 40.18 112.544 40.09 112.16 39.91C111.78 39.726 111.454 39.474 111.182 39.154C110.91 38.83 110.716 38.458 110.6 38.038L111.806 37.714C111.874 37.97 111.99 38.192 112.154 38.38C112.322 38.568 112.518 38.714 112.742 38.818C112.966 38.918 113.198 38.968 113.438 38.968C113.754 38.968 114.04 38.892 114.296 38.74C114.556 38.588 114.76 38.384 114.908 38.128C115.06 37.872 115.136 37.59 115.136 37.282C115.136 36.966 115.058 36.68 114.902 36.424C114.75 36.168 114.544 35.966 114.284 35.818C114.028 35.666 113.746 35.59 113.438 35.59C113.086 35.59 112.788 35.66 112.544 35.8C112.3 35.94 112.11 36.102 111.974 36.286L110.882 35.902L111.146 31.36H115.808V32.542H111.788L112.298 32.068L112.088 35.47L111.842 35.152C112.07 34.924 112.342 34.75 112.658 34.63C112.974 34.51 113.288 34.45 113.6 34.45C114.136 34.45 114.614 34.574 115.034 34.822C115.458 35.07 115.792 35.408 116.036 35.836C116.28 36.26 116.402 36.742 116.402 37.282C116.402 37.818 116.264 38.306 115.988 38.746C115.712 39.182 115.346 39.53 114.89 39.79C114.434 40.05 113.938 40.18 113.402 40.18Z" fill="#828282"/>
<path d="M81 55C81 50.5817 84.5817 47 89 47H138C142.418 47 146 50.5817 146 55V124H81V55Z" fill="#F6866A"/>
<path d="M194.612 141.18C193.948 141.18 193.384 141.032 192.92 140.736C192.456 140.44 192.1 140.034 191.852 139.518C191.608 139.002 191.484 138.416 191.48 137.76C191.484 137.092 191.612 136.502 191.864 135.99C192.116 135.474 192.476 135.07 192.944 134.778C193.412 134.486 193.974 134.34 194.63 134.34C195.338 134.34 195.942 134.516 196.442 134.868C196.946 135.22 197.278 135.702 197.438 136.314L196.19 136.674C196.066 136.31 195.862 136.028 195.578 135.828C195.298 135.624 194.976 135.522 194.612 135.522C194.2 135.522 193.862 135.62 193.598 135.816C193.334 136.008 193.138 136.272 193.01 136.608C192.882 136.944 192.816 137.328 192.812 137.76C192.816 138.428 192.968 138.968 193.268 139.38C193.572 139.792 194.02 139.998 194.612 139.998C195.016 139.998 195.342 139.906 195.59 139.722C195.842 139.534 196.034 139.266 196.166 138.918L197.438 139.218C197.226 139.85 196.876 140.336 196.388 140.676C195.9 141.012 195.308 141.18 194.612 141.18Z" fill="#828282"/>
<path d="M194.258 73.162C193.83 73.162 193.428 73.082 193.052 72.922C192.676 72.758 192.35 72.526 192.074 72.226C191.802 71.926 191.604 71.572 191.48 71.164L192.692 70.828C192.808 71.2 193.01 71.486 193.298 71.686C193.586 71.882 193.906 71.978 194.258 71.974C194.574 71.97 194.852 71.896 195.092 71.752C195.332 71.608 195.52 71.414 195.656 71.17C195.792 70.922 195.86 70.638 195.86 70.318C195.86 69.838 195.71 69.442 195.41 69.13C195.114 68.818 194.726 68.662 194.246 68.662C194.11 68.662 193.97 68.682 193.826 68.722C193.686 68.762 193.554 68.814 193.43 68.878L192.842 67.888L195.89 65.194L196.022 65.554H191.822V64.36H197.018V65.554L194.486 67.99L194.474 67.582C195.018 67.582 195.49 67.704 195.89 67.948C196.29 68.188 196.598 68.516 196.814 68.932C197.034 69.344 197.144 69.806 197.144 70.318C197.144 70.87 197.014 71.36 196.754 71.788C196.498 72.216 196.152 72.552 195.716 72.796C195.284 73.04 194.798 73.162 194.258 73.162Z" fill="#828282"/>
<path d="M162 88C162 83.5817 165.582 80 170 80H219C223.418 80 227 83.5817 227 88V124H162V88Z" fill="#59E6F6"/>
<path d="M275.414 141.18C274.81 141.18 274.288 141.03 273.848 140.73C273.412 140.43 273.074 140.022 272.834 139.506C272.598 138.986 272.48 138.402 272.48 137.754C272.48 137.102 272.6 136.52 272.84 136.008C273.08 135.492 273.42 135.086 273.86 134.79C274.304 134.49 274.83 134.34 275.438 134.34C276.05 134.34 276.564 134.49 276.98 134.79C277.4 135.086 277.716 135.492 277.928 136.008C278.144 136.524 278.252 137.106 278.252 137.754C278.252 138.402 278.144 138.984 277.928 139.5C277.712 140.016 277.394 140.426 276.974 140.73C276.554 141.03 276.034 141.18 275.414 141.18ZM275.588 140.046C276 140.046 276.336 139.948 276.596 139.752C276.856 139.556 277.046 139.286 277.166 138.942C277.286 138.598 277.346 138.202 277.346 137.754C277.346 137.306 277.284 136.91 277.16 136.566C277.04 136.222 276.852 135.954 276.596 135.762C276.344 135.57 276.022 135.474 275.63 135.474C275.214 135.474 274.872 135.576 274.604 135.78C274.336 135.984 274.136 136.258 274.004 136.602C273.876 136.946 273.812 137.33 273.812 137.754C273.812 138.182 273.876 138.57 274.004 138.918C274.136 139.262 274.332 139.536 274.592 139.74C274.856 139.944 275.188 140.046 275.588 140.046ZM277.346 141V136.338H277.202V132.36H278.462V141H277.346Z" fill="#828282"/>
<path d="M271.346 13V5.74L269.72 6.73V5.332L271.346 4.36H272.624V13H271.346ZM277.915 13.18C277.327 13.18 276.807 13.052 276.355 12.796C275.903 12.536 275.547 12.18 275.287 11.728C275.031 11.276 274.903 10.756 274.903 10.168V7.192C274.903 6.604 275.031 6.084 275.287 5.632C275.547 5.18 275.903 4.826 276.355 4.57C276.807 4.31 277.327 4.18 277.915 4.18C278.503 4.18 279.023 4.31 279.475 4.57C279.927 4.826 280.281 5.18 280.536 5.632C280.797 6.084 280.927 6.604 280.927 7.192V10.168C280.927 10.756 280.797 11.276 280.536 11.728C280.281 12.18 279.927 12.536 279.475 12.796C279.023 13.052 278.503 13.18 277.915 13.18ZM277.915 11.98C278.235 11.98 278.525 11.904 278.785 11.752C279.049 11.596 279.259 11.388 279.415 11.128C279.571 10.864 279.649 10.57 279.649 10.246V7.102C279.649 6.782 279.571 6.492 279.415 6.232C279.259 5.968 279.049 5.76 278.785 5.608C278.525 5.452 278.235 5.374 277.915 5.374C277.595 5.374 277.303 5.452 277.039 5.608C276.779 5.76 276.571 5.968 276.415 6.232C276.259 6.492 276.181 6.782 276.181 7.102V10.246C276.181 10.57 276.259 10.864 276.415 11.128C276.571 11.388 276.779 11.596 277.039 11.752C277.303 11.904 277.595 11.98 277.915 11.98Z" fill="#828282"/>
<path d="M243 28C243 23.5817 246.582 20 251 20H300C304.418 20 308 23.5817 308 28V124H243V28Z" fill="#7661E2"/>
</svg>
