<svg width="837" height="503" viewBox="0 0 837 503" fill="none" xmlns="http://www.w3.org/2000/svg">
<g filter="url(#filter0_d_2_72)">
<rect x="48" y="44" width="741" height="407" rx="10" fill="white"/>
</g>
<circle cx="579" cy="87.5" r="5" fill="#FB896B"/>
<path d="M590.28 93L593.752 82.92H595.117L598.589 93H597.518L594.221 83.494H594.627L591.351 93H590.28ZM591.827 90.557V89.591H597.035V90.557H591.827ZM602.989 93.21C602.228 93.21 601.584 93.0397 601.057 92.699C600.53 92.3583 600.128 91.8893 599.853 91.292C599.582 90.69 599.442 89.9993 599.433 89.22C599.442 88.4267 599.587 87.7313 599.867 87.134C600.147 86.532 600.551 86.0653 601.078 85.734C601.605 85.398 602.245 85.23 602.996 85.23C603.761 85.23 604.426 85.4167 604.991 85.79C605.56 86.1633 605.95 86.6743 606.16 87.323L605.152 87.645C604.975 87.1923 604.692 86.8423 604.305 86.595C603.922 86.343 603.484 86.217 602.989 86.217C602.434 86.217 601.974 86.3453 601.61 86.602C601.246 86.854 600.975 87.2063 600.798 87.659C600.621 88.1117 600.53 88.632 600.525 89.22C600.534 90.1253 600.744 90.8533 601.155 91.404C601.566 91.95 602.177 92.223 602.989 92.223C603.502 92.223 603.939 92.1063 604.298 91.873C604.662 91.635 604.937 91.2897 605.124 90.837L606.16 91.145C605.88 91.817 605.469 92.3303 604.928 92.685C604.387 93.035 603.74 93.21 602.989 93.21ZM613.065 93V89.143C613.065 88.723 613.025 88.338 612.946 87.988C612.867 87.6333 612.738 87.3253 612.561 87.064C612.388 86.798 612.162 86.5927 611.882 86.448C611.607 86.3033 611.271 86.231 610.874 86.231C610.51 86.231 610.188 86.294 609.908 86.42C609.633 86.546 609.399 86.728 609.208 86.966C609.021 87.1993 608.879 87.484 608.781 87.82C608.683 88.156 608.634 88.5387 608.634 88.968L607.906 88.807C607.906 88.0323 608.041 87.3813 608.312 86.854C608.583 86.3267 608.956 85.9277 609.432 85.657C609.908 85.3863 610.454 85.251 611.07 85.251C611.523 85.251 611.917 85.321 612.253 85.461C612.594 85.601 612.881 85.79 613.114 86.028C613.352 86.266 613.543 86.539 613.688 86.847C613.833 87.1503 613.938 87.4747 614.003 87.82C614.068 88.1607 614.101 88.5013 614.101 88.842V93H613.065ZM607.598 93V82.92H608.529V88.611H608.634V93H607.598ZM616.058 84.005V82.85H617.087V84.005H616.058ZM616.058 93V85.44H617.087V93H616.058ZM622.384 93.21C621.647 93.21 621.007 93.0467 620.466 92.72C619.929 92.3933 619.512 91.9337 619.213 91.341C618.914 90.7483 618.765 90.053 618.765 89.255C618.765 88.429 618.912 87.715 619.206 87.113C619.5 86.511 619.913 86.0467 620.445 85.72C620.982 85.3933 621.614 85.23 622.342 85.23C623.089 85.23 623.726 85.4027 624.253 85.748C624.78 86.0887 625.179 86.5787 625.45 87.218C625.721 87.8573 625.844 88.6203 625.821 89.507H624.771V89.143C624.752 88.163 624.54 87.4233 624.134 86.924C623.733 86.4247 623.145 86.175 622.37 86.175C621.558 86.175 620.935 86.4387 620.501 86.966C620.072 87.4933 619.857 88.2447 619.857 89.22C619.857 90.172 620.072 90.9117 620.501 91.439C620.935 91.9617 621.549 92.223 622.342 92.223C622.883 92.223 623.355 92.0993 623.756 91.852C624.162 91.6 624.482 91.2383 624.715 90.767L625.674 91.138C625.375 91.796 624.934 92.307 624.351 92.671C623.772 93.0303 623.117 93.21 622.384 93.21ZM619.493 89.507V88.646H625.268V89.507H619.493ZM629.145 93L626.401 85.44H627.444L629.677 91.656L631.896 85.44H632.953L630.209 93H629.145ZM637.136 93.21C636.399 93.21 635.759 93.0467 635.218 92.72C634.681 92.3933 634.264 91.9337 633.965 91.341C633.666 90.7483 633.517 90.053 633.517 89.255C633.517 88.429 633.664 87.715 633.958 87.113C634.252 86.511 634.665 86.0467 635.197 85.72C635.734 85.3933 636.366 85.23 637.094 85.23C637.841 85.23 638.478 85.4027 639.005 85.748C639.532 86.0887 639.931 86.5787 640.202 87.218C640.473 87.8573 640.596 88.6203 640.573 89.507H639.523V89.143C639.504 88.163 639.292 87.4233 638.886 86.924C638.485 86.4247 637.897 86.175 637.122 86.175C636.31 86.175 635.687 86.4387 635.253 86.966C634.824 87.4933 634.609 88.2447 634.609 89.22C634.609 90.172 634.824 90.9117 635.253 91.439C635.687 91.9617 636.301 92.223 637.094 92.223C637.635 92.223 638.107 92.0993 638.508 91.852C638.914 91.6 639.234 91.2383 639.467 90.767L640.426 91.138C640.127 91.796 639.686 92.307 639.103 92.671C638.524 93.0303 637.869 93.21 637.136 93.21ZM634.245 89.507V88.646H640.02V89.507H634.245ZM645.059 93.21C644.355 93.21 643.753 93.035 643.253 92.685C642.754 92.3303 642.371 91.852 642.105 91.25C641.839 90.648 641.706 89.969 641.706 89.213C641.706 88.4617 641.837 87.785 642.098 87.183C642.364 86.581 642.745 86.105 643.239 85.755C643.734 85.405 644.327 85.23 645.017 85.23C645.727 85.23 646.324 85.4027 646.809 85.748C647.295 86.0933 647.661 86.567 647.908 87.169C648.16 87.7663 648.286 88.4477 648.286 89.213C648.286 89.9643 648.163 90.6433 647.915 91.25C647.668 91.852 647.304 92.3303 646.823 92.685C646.343 93.035 645.755 93.21 645.059 93.21ZM645.164 92.251C645.701 92.251 646.144 92.1203 646.494 91.859C646.844 91.5977 647.106 91.2383 647.278 90.781C647.451 90.319 647.537 89.7963 647.537 89.213C647.537 88.6203 647.451 88.0977 647.278 87.645C647.106 87.1877 646.844 86.8307 646.494 86.574C646.149 86.3173 645.713 86.189 645.185 86.189C644.644 86.189 644.196 86.322 643.841 86.588C643.487 86.854 643.223 87.2157 643.05 87.673C642.882 88.1303 642.798 88.6437 642.798 89.213C642.798 89.787 642.885 90.305 643.057 90.767C643.235 91.2243 643.498 91.586 643.848 91.852C644.198 92.118 644.637 92.251 645.164 92.251ZM647.537 93V87.309H647.425V82.92H648.461V93H647.537Z" fill="#787486"/>
<circle cx="700" cy="87.5" r="5" fill="#6956E5"/>
<path d="M714.661 93V83.907H711.14V82.92H719.211V83.907H715.69V93H714.661ZM721.512 93.21C720.943 93.21 720.464 93.1073 720.077 92.902C719.694 92.6967 719.407 92.4237 719.216 92.083C719.025 91.7423 718.929 91.3713 718.929 90.97C718.929 90.5593 719.011 90.2093 719.174 89.92C719.342 89.626 719.568 89.3857 719.853 89.199C720.142 89.0123 720.476 88.87 720.854 88.772C721.237 88.6787 721.659 88.597 722.121 88.527C722.588 88.4523 723.043 88.3893 723.486 88.338C723.934 88.282 724.326 88.2283 724.662 88.177L724.298 88.401C724.312 87.6543 724.167 87.1013 723.864 86.742C723.561 86.3827 723.033 86.203 722.282 86.203C721.764 86.203 721.325 86.3197 720.966 86.553C720.611 86.7863 720.362 87.155 720.217 87.659L719.216 87.365C719.389 86.6883 719.736 86.1633 720.259 85.79C720.782 85.4167 721.461 85.23 722.296 85.23C722.987 85.23 723.572 85.3607 724.053 85.622C724.538 85.8787 724.881 86.252 725.082 86.742C725.175 86.9613 725.236 87.2063 725.264 87.477C725.292 87.7477 725.306 88.023 725.306 88.303V93H724.389V91.103L724.655 91.215C724.398 91.8637 723.999 92.3583 723.458 92.699C722.917 93.0397 722.268 93.21 721.512 93.21ZM721.631 92.321C722.112 92.321 722.532 92.2347 722.891 92.062C723.25 91.8893 723.54 91.6537 723.759 91.355C723.978 91.0517 724.121 90.711 724.186 90.333C724.242 90.0903 724.272 89.8243 724.277 89.535C724.282 89.241 724.284 89.0217 724.284 88.877L724.676 89.08C724.326 89.1267 723.946 89.1733 723.535 89.22C723.129 89.2667 722.728 89.3203 722.331 89.381C721.939 89.4417 721.584 89.514 721.267 89.598C721.052 89.6587 720.845 89.745 720.644 89.857C720.443 89.9643 720.278 90.109 720.147 90.291C720.021 90.473 719.958 90.6993 719.958 90.97C719.958 91.1893 720.012 91.4017 720.119 91.607C720.231 91.8123 720.408 91.9827 720.651 92.118C720.898 92.2533 721.225 92.321 721.631 92.321ZM727.128 93V85.44H728.052V87.26L727.87 87.022C727.954 86.798 728.064 86.5927 728.199 86.406C728.335 86.2147 728.482 86.0583 728.64 85.937C728.836 85.7643 729.065 85.6337 729.326 85.545C729.588 85.4517 729.851 85.398 730.117 85.384C730.383 85.3653 730.626 85.384 730.845 85.44V86.406C730.57 86.336 730.269 86.3197 729.942 86.357C729.616 86.3943 729.315 86.525 729.039 86.749C728.787 86.945 728.598 87.1807 728.472 87.456C728.346 87.7267 728.262 88.016 728.22 88.324C728.178 88.6273 728.157 88.9283 728.157 89.227V93H727.128ZM734.903 96.57C734.516 96.57 734.133 96.5117 733.755 96.395C733.382 96.283 733.036 96.1033 732.719 95.856C732.402 95.6133 732.136 95.296 731.921 94.904L732.852 94.386C733.062 94.806 733.356 95.107 733.734 95.289C734.117 95.4757 734.506 95.569 734.903 95.569C735.449 95.569 735.89 95.4663 736.226 95.261C736.567 95.0603 736.814 94.7617 736.968 94.365C737.122 93.9683 737.197 93.4737 737.192 92.881V90.865H737.311V85.44H738.228V92.895C738.228 93.1097 738.221 93.315 738.207 93.511C738.198 93.7117 738.177 93.9077 738.144 94.099C738.055 94.6637 737.871 95.128 737.591 95.492C737.316 95.856 736.952 96.1267 736.499 96.304C736.051 96.4813 735.519 96.57 734.903 96.57ZM734.833 93.21C734.128 93.21 733.526 93.035 733.027 92.685C732.528 92.3303 732.145 91.852 731.879 91.25C731.613 90.648 731.48 89.969 731.48 89.213C731.48 88.4617 731.611 87.785 731.872 87.183C732.138 86.581 732.518 86.105 733.013 85.755C733.508 85.405 734.1 85.23 734.791 85.23C735.5 85.23 736.098 85.4027 736.583 85.748C737.068 86.0933 737.435 86.567 737.682 87.169C737.934 87.7663 738.06 88.4477 738.06 89.213C738.06 89.9643 737.936 90.6433 737.689 91.25C737.442 91.852 737.078 92.3303 736.597 92.685C736.116 93.035 735.528 93.21 734.833 93.21ZM734.938 92.251C735.475 92.251 735.918 92.1203 736.268 91.859C736.618 91.5977 736.879 91.2383 737.052 90.781C737.225 90.319 737.311 89.7963 737.311 89.213C737.311 88.6203 737.225 88.0977 737.052 87.645C736.879 87.1877 736.618 86.8307 736.268 86.574C735.923 86.3173 735.486 86.189 734.959 86.189C734.418 86.189 733.97 86.322 733.615 86.588C733.26 86.854 732.997 87.2157 732.824 87.673C732.656 88.1303 732.572 88.6437 732.572 89.213C732.572 89.787 732.658 90.305 732.831 90.767C733.008 91.2243 733.272 91.586 733.622 91.852C733.972 92.118 734.411 92.251 734.938 92.251ZM743.384 93.21C742.647 93.21 742.007 93.0467 741.466 92.72C740.929 92.3933 740.512 91.9337 740.213 91.341C739.914 90.7483 739.765 90.053 739.765 89.255C739.765 88.429 739.912 87.715 740.206 87.113C740.5 86.511 740.913 86.0467 741.445 85.72C741.982 85.3933 742.614 85.23 743.342 85.23C744.089 85.23 744.726 85.4027 745.253 85.748C745.78 86.0887 746.179 86.5787 746.45 87.218C746.721 87.8573 746.844 88.6203 746.821 89.507H745.771V89.143C745.752 88.163 745.54 87.4233 745.134 86.924C744.733 86.4247 744.145 86.175 743.37 86.175C742.558 86.175 741.935 86.4387 741.501 86.966C741.072 87.4933 740.857 88.2447 740.857 89.22C740.857 90.172 741.072 90.9117 741.501 91.439C741.935 91.9617 742.549 92.223 743.342 92.223C743.883 92.223 744.355 92.0993 744.756 91.852C745.162 91.6 745.482 91.2383 745.715 90.767L746.674 91.138C746.375 91.796 745.934 92.307 745.351 92.671C744.772 93.0303 744.117 93.21 743.384 93.21ZM740.493 89.507V88.646H746.268V89.507H740.493ZM752.491 93C752.066 93.0887 751.646 93.1237 751.231 93.105C750.82 93.0863 750.451 92.9977 750.125 92.839C749.803 92.6803 749.558 92.433 749.39 92.097C749.254 91.817 749.18 91.5347 749.166 91.25C749.156 90.9607 749.152 90.6317 749.152 90.263V83.34H750.174V90.221C750.174 90.5383 750.176 90.8043 750.181 91.019C750.19 91.229 750.239 91.4157 750.328 91.579C750.496 91.8917 750.762 92.0783 751.126 92.139C751.494 92.1997 751.949 92.1857 752.491 92.097V93ZM747.535 86.322V85.44H752.491V86.322H747.535Z" fill="#787486"/>
<path d="M73.26 95V82.04H78.615C78.741 82.04 78.903 82.046 79.101 82.058C79.299 82.064 79.482 82.082 79.65 82.112C80.4 82.226 81.018 82.475 81.504 82.859C81.996 83.243 82.359 83.729 82.593 84.317C82.833 84.899 82.953 85.547 82.953 86.261C82.953 86.969 82.833 87.617 82.593 88.205C82.353 88.787 81.987 89.27 81.495 89.654C81.009 90.038 80.394 90.287 79.65 90.401C79.482 90.425 79.296 90.443 79.092 90.455C78.894 90.467 78.735 90.473 78.615 90.473H75.429V95H73.26ZM75.429 88.448H78.525C78.645 88.448 78.78 88.442 78.93 88.43C79.08 88.418 79.218 88.394 79.344 88.358C79.704 88.268 79.986 88.109 80.19 87.881C80.4 87.653 80.547 87.395 80.631 87.107C80.721 86.819 80.766 86.537 80.766 86.261C80.766 85.985 80.721 85.703 80.631 85.415C80.547 85.121 80.4 84.86 80.19 84.632C79.986 84.404 79.704 84.245 79.344 84.155C79.218 84.119 79.08 84.098 78.93 84.092C78.78 84.08 78.645 84.074 78.525 84.074H75.429V88.448ZM84.7561 95V85.28H86.6731V87.647L86.4391 87.341C86.5591 87.017 86.7181 86.723 86.9161 86.459C87.1201 86.189 87.3631 85.967 87.6451 85.793C87.8851 85.631 88.1491 85.505 88.4371 85.415C88.7311 85.319 89.0311 85.262 89.3371 85.244C89.6431 85.22 89.9401 85.232 90.2281 85.28V87.305C89.9401 87.221 89.6071 87.194 89.2291 87.224C88.8571 87.254 88.5211 87.359 88.2211 87.539C87.9211 87.701 87.6751 87.908 87.4831 88.16C87.2971 88.412 87.1591 88.7 87.0691 89.024C86.9791 89.342 86.9341 89.687 86.9341 90.059V95H84.7561ZM96.0628 95.27C95.0908 95.27 94.2418 95.051 93.5158 94.613C92.7898 94.175 92.2258 93.572 91.8238 92.804C91.4278 92.03 91.2298 91.142 91.2298 90.14C91.2298 89.12 91.4338 88.226 91.8418 87.458C92.2498 86.69 92.8168 86.09 93.5428 85.658C94.2688 85.226 95.1088 85.01 96.0628 85.01C97.0408 85.01 97.8928 85.229 98.6188 85.667C99.3448 86.105 99.9088 86.711 100.311 87.485C100.713 88.253 100.914 89.138 100.914 90.14C100.914 91.148 100.71 92.039 100.302 92.813C99.8998 93.581 99.3358 94.184 98.6098 94.622C97.8838 95.054 97.0348 95.27 96.0628 95.27ZM96.0628 93.236C96.9268 93.236 97.5688 92.948 97.9888 92.372C98.4088 91.796 98.6188 91.052 98.6188 90.14C98.6188 89.198 98.4058 88.448 97.9798 87.89C97.5538 87.326 96.9148 87.044 96.0628 87.044C95.4808 87.044 95.0008 87.176 94.6228 87.44C94.2508 87.698 93.9748 88.061 93.7948 88.529C93.6148 88.991 93.5248 89.528 93.5248 90.14C93.5248 91.082 93.7378 91.835 94.1638 92.399C94.5958 92.957 95.2288 93.236 96.0628 93.236ZM101.457 99.32V97.286H101.916C102.444 97.286 102.819 97.163 103.041 96.917C103.263 96.671 103.374 96.308 103.374 95.828V85.28H105.534V96.8C105.534 97.586 105.303 98.201 104.841 98.645C104.385 99.095 103.749 99.32 102.933 99.32H101.457ZM103.374 83.804V81.815H105.534V83.804H103.374ZM112.501 95.27C111.517 95.27 110.653 95.057 109.909 94.631C109.165 94.205 108.583 93.614 108.163 92.858C107.749 92.102 107.542 91.232 107.542 90.248C107.542 89.186 107.746 88.265 108.154 87.485C108.562 86.699 109.129 86.09 109.855 85.658C110.581 85.226 111.421 85.01 112.375 85.01C113.383 85.01 114.238 85.247 114.94 85.721C115.648 86.189 116.173 86.852 116.515 87.71C116.857 88.568 116.986 89.579 116.902 90.743H114.751V89.951C114.745 88.895 114.559 88.124 114.193 87.638C113.827 87.152 113.251 86.909 112.465 86.909C111.577 86.909 110.917 87.185 110.485 87.737C110.053 88.283 109.837 89.084 109.837 90.14C109.837 91.124 110.053 91.886 110.485 92.426C110.917 92.966 111.547 93.236 112.375 93.236C112.909 93.236 113.368 93.119 113.752 92.885C114.142 92.645 114.442 92.3 114.652 91.85L116.794 92.498C116.422 93.374 115.846 94.055 115.066 94.541C114.292 95.027 113.437 95.27 112.501 95.27ZM109.153 90.743V89.105H115.84V90.743H109.153ZM123.131 95.27C122.129 95.27 121.274 95.048 120.566 94.604C119.858 94.154 119.315 93.542 118.937 92.768C118.565 91.994 118.376 91.118 118.37 90.14C118.376 89.144 118.571 88.262 118.955 87.494C119.345 86.72 119.897 86.114 120.611 85.676C121.325 85.232 122.174 85.01 123.158 85.01C124.262 85.01 125.195 85.289 125.957 85.847C126.725 86.399 127.226 87.155 127.46 88.115L125.3 88.7C125.132 88.178 124.853 87.773 124.463 87.485C124.073 87.191 123.629 87.044 123.131 87.044C122.567 87.044 122.102 87.179 121.736 87.449C121.37 87.713 121.1 88.079 120.926 88.547C120.752 89.015 120.665 89.546 120.665 90.14C120.665 91.064 120.872 91.811 121.286 92.381C121.7 92.951 122.315 93.236 123.131 93.236C123.707 93.236 124.16 93.104 124.49 92.84C124.826 92.576 125.078 92.195 125.246 91.697L127.46 92.192C127.16 93.182 126.635 93.944 125.885 94.478C125.135 95.006 124.217 95.27 123.131 95.27ZM134.961 95C134.319 95.12 133.689 95.171 133.071 95.153C132.459 95.141 131.91 95.03 131.424 94.82C130.938 94.604 130.569 94.265 130.317 93.803C130.095 93.383 129.978 92.954 129.966 92.516C129.954 92.078 129.948 91.583 129.948 91.031V82.58H132.108V90.905C132.108 91.295 132.111 91.637 132.117 91.931C132.129 92.225 132.192 92.465 132.306 92.651C132.522 93.011 132.867 93.212 133.341 93.254C133.815 93.296 134.355 93.272 134.961 93.182V95ZM128.184 86.981V85.28H134.961V86.981H128.184ZM140.655 95V82.04H144.786C144.894 82.04 145.107 82.043 145.425 82.049C145.749 82.055 146.061 82.076 146.361 82.112C147.387 82.244 148.254 82.61 148.962 83.21C149.676 83.804 150.216 84.563 150.582 85.487C150.948 86.411 151.131 87.422 151.131 88.52C151.131 89.618 150.948 90.629 150.582 91.553C150.216 92.477 149.676 93.239 148.962 93.839C148.254 94.433 147.387 94.796 146.361 94.928C146.067 94.964 145.758 94.985 145.434 94.991C145.11 94.997 144.894 95 144.786 95H140.655ZM142.86 92.957H144.786C144.966 92.957 145.194 92.951 145.47 92.939C145.752 92.927 146.001 92.9 146.217 92.858C146.829 92.744 147.327 92.471 147.711 92.039C148.095 91.607 148.377 91.082 148.557 90.464C148.743 89.846 148.836 89.198 148.836 88.52C148.836 87.818 148.743 87.158 148.557 86.54C148.371 85.922 148.083 85.403 147.693 84.983C147.309 84.563 146.817 84.296 146.217 84.182C146.001 84.134 145.752 84.107 145.47 84.101C145.194 84.089 144.966 84.083 144.786 84.083H142.86V92.957ZM157.677 95.27C156.693 95.27 155.829 95.057 155.085 94.631C154.341 94.205 153.759 93.614 153.339 92.858C152.925 92.102 152.718 91.232 152.718 90.248C152.718 89.186 152.922 88.265 153.33 87.485C153.738 86.699 154.305 86.09 155.031 85.658C155.757 85.226 156.597 85.01 157.551 85.01C158.559 85.01 159.414 85.247 160.116 85.721C160.824 86.189 161.349 86.852 161.691 87.71C162.033 88.568 162.162 89.579 162.078 90.743H159.927V89.951C159.921 88.895 159.735 88.124 159.369 87.638C159.003 87.152 158.427 86.909 157.641 86.909C156.753 86.909 156.093 87.185 155.661 87.737C155.229 88.283 155.013 89.084 155.013 90.14C155.013 91.124 155.229 91.886 155.661 92.426C156.093 92.966 156.723 93.236 157.551 93.236C158.085 93.236 158.544 93.119 158.928 92.885C159.318 92.645 159.618 92.3 159.828 91.85L161.97 92.498C161.598 93.374 161.022 94.055 160.242 94.541C159.468 95.027 158.613 95.27 157.677 95.27ZM154.329 90.743V89.105H161.016V90.743H154.329ZM164.266 95V81.77H166.435V95H164.266ZM169.311 83.804V81.815H171.48V83.804H169.311ZM169.311 95V85.28H171.48V95H169.311ZM176.804 95L173.276 85.28H175.445L177.893 92.327L180.332 85.28H182.51L178.982 95H176.804ZM188.193 95.27C187.209 95.27 186.345 95.057 185.601 94.631C184.857 94.205 184.275 93.614 183.855 92.858C183.441 92.102 183.234 91.232 183.234 90.248C183.234 89.186 183.438 88.265 183.846 87.485C184.254 86.699 184.821 86.09 185.547 85.658C186.273 85.226 187.113 85.01 188.067 85.01C189.075 85.01 189.93 85.247 190.632 85.721C191.34 86.189 191.865 86.852 192.207 87.71C192.549 88.568 192.678 89.579 192.594 90.743H190.443V89.951C190.437 88.895 190.251 88.124 189.885 87.638C189.519 87.152 188.943 86.909 188.157 86.909C187.269 86.909 186.609 87.185 186.177 87.737C185.745 88.283 185.529 89.084 185.529 90.14C185.529 91.124 185.745 91.886 186.177 92.426C186.609 92.966 187.239 93.236 188.067 93.236C188.601 93.236 189.06 93.119 189.444 92.885C189.834 92.645 190.134 92.3 190.344 91.85L192.486 92.498C192.114 93.374 191.538 94.055 190.758 94.541C189.984 95.027 189.129 95.27 188.193 95.27ZM184.845 90.743V89.105H191.532V90.743H184.845ZM194.602 95V85.28H196.519V87.647L196.285 87.341C196.405 87.017 196.564 86.723 196.762 86.459C196.966 86.189 197.209 85.967 197.491 85.793C197.731 85.631 197.995 85.505 198.283 85.415C198.577 85.319 198.877 85.262 199.183 85.244C199.489 85.22 199.786 85.232 200.074 85.28V87.305C199.786 87.221 199.453 87.194 199.075 87.224C198.703 87.254 198.367 87.359 198.067 87.539C197.767 87.701 197.521 87.908 197.329 88.16C197.143 88.412 197.005 88.7 196.915 89.024C196.825 89.342 196.78 89.687 196.78 90.059V95H194.602ZM201.971 83.804V81.815H204.14V83.804H201.971ZM201.971 95V85.28H204.14V95H201.971ZM211.255 95.27C210.271 95.27 209.407 95.057 208.663 94.631C207.919 94.205 207.337 93.614 206.917 92.858C206.503 92.102 206.296 91.232 206.296 90.248C206.296 89.186 206.5 88.265 206.908 87.485C207.316 86.699 207.883 86.09 208.609 85.658C209.335 85.226 210.175 85.01 211.129 85.01C212.137 85.01 212.992 85.247 213.694 85.721C214.402 86.189 214.927 86.852 215.269 87.71C215.611 88.568 215.74 89.579 215.656 90.743H213.505V89.951C213.499 88.895 213.313 88.124 212.947 87.638C212.581 87.152 212.005 86.909 211.219 86.909C210.331 86.909 209.671 87.185 209.239 87.737C208.807 88.283 208.591 89.084 208.591 90.14C208.591 91.124 208.807 91.886 209.239 92.426C209.671 92.966 210.301 93.236 211.129 93.236C211.663 93.236 212.122 93.119 212.506 92.885C212.896 92.645 213.196 92.3 213.406 91.85L215.548 92.498C215.176 93.374 214.6 94.055 213.82 94.541C213.046 95.027 212.191 95.27 211.255 95.27ZM207.907 90.743V89.105H214.594V90.743H207.907ZM221.417 95.27C220.217 95.27 219.242 95 218.492 94.46C217.742 93.92 217.286 93.161 217.124 92.183L219.338 91.841C219.452 92.321 219.704 92.699 220.094 92.975C220.484 93.251 220.976 93.389 221.57 93.389C222.092 93.389 222.494 93.287 222.776 93.083C223.064 92.873 223.208 92.588 223.208 92.228C223.208 92.006 223.154 91.829 223.046 91.697C222.944 91.559 222.716 91.427 222.362 91.301C222.008 91.175 221.465 91.016 220.733 90.824C219.917 90.608 219.269 90.377 218.789 90.131C218.309 89.879 217.964 89.582 217.754 89.24C217.544 88.898 217.439 88.484 217.439 87.998C217.439 87.392 217.598 86.864 217.916 86.414C218.234 85.964 218.678 85.619 219.248 85.379C219.818 85.133 220.49 85.01 221.264 85.01C222.02 85.01 222.689 85.127 223.271 85.361C223.859 85.595 224.333 85.928 224.693 86.36C225.053 86.792 225.275 87.299 225.359 87.881L223.145 88.277C223.091 87.863 222.902 87.536 222.578 87.296C222.26 87.056 221.834 86.921 221.3 86.891C220.79 86.861 220.379 86.939 220.067 87.125C219.755 87.305 219.599 87.56 219.599 87.89C219.599 88.076 219.662 88.235 219.788 88.367C219.914 88.499 220.166 88.631 220.544 88.763C220.928 88.895 221.498 89.057 222.254 89.249C223.028 89.447 223.646 89.675 224.108 89.933C224.576 90.185 224.912 90.488 225.116 90.842C225.326 91.196 225.431 91.625 225.431 92.129C225.431 93.107 225.074 93.875 224.36 94.433C223.652 94.991 222.671 95.27 221.417 95.27Z" fill="#23262F"/>
<path d="M77.1278 137.273V146H76.071V138.381H76.0199L73.8892 139.795V138.722L76.071 137.273H77.1278ZM79.6378 146V145.233L82.5185 142.08C82.8565 141.71 83.1349 141.389 83.3537 141.116C83.5724 140.841 83.7344 140.582 83.8395 140.341C83.9474 140.097 84.0014 139.841 84.0014 139.574C84.0014 139.267 83.9276 139.001 83.7798 138.777C83.6349 138.553 83.4361 138.379 83.1832 138.257C82.9304 138.135 82.6463 138.074 82.331 138.074C81.9957 138.074 81.7031 138.143 81.4531 138.283C81.206 138.419 81.0142 138.611 80.8778 138.858C80.7443 139.105 80.6776 139.395 80.6776 139.727H79.6719C79.6719 139.216 79.7898 138.767 80.0256 138.381C80.2614 137.994 80.5824 137.693 80.9886 137.477C81.3977 137.261 81.8565 137.153 82.3651 137.153C82.8764 137.153 83.3295 137.261 83.7244 137.477C84.1193 137.693 84.429 137.984 84.6534 138.351C84.8778 138.717 84.9901 139.125 84.9901 139.574C84.9901 139.895 84.9318 140.209 84.8153 140.516C84.7017 140.82 84.5028 141.159 84.2188 141.534C83.9375 141.906 83.5469 142.361 83.0469 142.898L81.0866 144.994V145.062H85.1435V146H79.6378Z" fill="#6B7280"/>
<path d="M76.8935 179.273V188H75.8366V180.381H75.7855L73.6548 181.795V180.722L75.8366 179.273H76.8935ZM82.25 188.119C81.608 188.119 81.0611 187.945 80.6094 187.595C80.1577 187.243 79.8125 186.733 79.5739 186.065C79.3352 185.395 79.2159 184.585 79.2159 183.636C79.2159 182.693 79.3352 181.888 79.5739 181.22C79.8153 180.55 80.1619 180.038 80.6136 179.686C81.0682 179.331 81.6136 179.153 82.25 179.153C82.8864 179.153 83.4304 179.331 83.8821 179.686C84.3366 180.038 84.6832 180.55 84.9219 181.22C85.1634 181.888 85.2841 182.693 85.2841 183.636C85.2841 184.585 85.1648 185.395 84.9261 186.065C84.6875 186.733 84.3423 187.243 83.8906 187.595C83.4389 187.945 82.892 188.119 82.25 188.119ZM82.25 187.182C82.8864 187.182 83.3807 186.875 83.733 186.261C84.0852 185.648 84.2614 184.773 84.2614 183.636C84.2614 182.881 84.1804 182.237 84.0185 181.706C83.8594 181.175 83.6293 180.77 83.3281 180.491C83.0298 180.213 82.6705 180.074 82.25 180.074C81.6193 180.074 81.1264 180.385 80.7713 181.007C80.4162 181.626 80.2386 182.503 80.2386 183.636C80.2386 184.392 80.3182 185.034 80.4773 185.562C80.6364 186.091 80.8651 186.493 81.1634 186.768C81.4645 187.044 81.8267 187.182 82.25 187.182Z" fill="#6B7280"/>
<path d="M82.3043 230.119C81.7191 230.119 81.2021 230.016 80.7532 229.808C80.3072 229.598 79.9592 229.31 79.7092 228.943C79.4592 228.574 79.3356 228.153 79.3384 227.682C79.3356 227.312 79.408 226.972 79.5558 226.659C79.7035 226.344 79.9052 226.081 80.1609 225.871C80.4194 225.658 80.7077 225.523 81.0259 225.466V225.415C80.6083 225.307 80.2759 225.072 80.0288 224.712C79.7816 224.348 79.6594 223.935 79.6623 223.472C79.6594 223.028 79.7717 222.632 79.9989 222.283C80.2262 221.933 80.5387 221.658 80.9364 221.456C81.337 221.254 81.793 221.153 82.3043 221.153C82.81 221.153 83.2617 221.254 83.6594 221.456C84.0572 221.658 84.3697 221.933 84.5969 222.283C84.8271 222.632 84.9435 223.028 84.9464 223.472C84.9435 223.935 84.8171 224.348 84.5671 224.712C84.32 225.072 83.9918 225.307 83.5827 225.415V225.466C83.8981 225.523 84.1822 225.658 84.435 225.871C84.6879 226.081 84.8896 226.344 85.0401 226.659C85.1907 226.972 85.2674 227.312 85.2702 227.682C85.2674 228.153 85.1396 228.574 84.8867 228.943C84.6367 229.31 84.2887 229.598 83.8427 229.808C83.3995 230.016 82.8867 230.119 82.3043 230.119ZM82.3043 229.182C82.6992 229.182 83.0401 229.118 83.3271 228.99C83.614 228.862 83.8356 228.682 83.9918 228.449C84.1481 228.216 84.2276 227.943 84.2305 227.631C84.2276 227.301 84.1424 227.01 83.9748 226.757C83.8072 226.504 83.5785 226.305 83.2887 226.161C83.0018 226.016 82.6737 225.943 82.3043 225.943C81.9322 225.943 81.5998 226.016 81.3072 226.161C81.0174 226.305 80.7887 226.504 80.6211 226.757C80.4563 227.01 80.3754 227.301 80.3782 227.631C80.3754 227.943 80.4506 228.216 80.604 228.449C80.7603 228.682 80.9833 228.862 81.2731 228.99C81.5629 229.118 81.9066 229.182 82.3043 229.182ZM82.3043 225.04C82.6168 225.04 82.8938 224.977 83.1353 224.852C83.3796 224.727 83.5714 224.553 83.7106 224.328C83.8498 224.104 83.9208 223.841 83.9237 223.54C83.9208 223.244 83.8512 222.987 83.7148 222.768C83.5785 222.547 83.3896 222.376 83.1481 222.257C82.9066 222.135 82.6254 222.074 82.3043 222.074C81.9776 222.074 81.6921 222.135 81.4478 222.257C81.2035 222.376 81.0146 222.547 80.881 222.768C80.7475 222.987 80.6822 223.244 80.685 223.54C80.6822 223.841 80.7489 224.104 80.8853 224.328C81.0245 224.553 81.2163 224.727 81.4606 224.852C81.7049 224.977 81.9862 225.04 82.3043 225.04Z" fill="#6B7280"/>
<path d="M82.3129 272.119C81.9549 272.114 81.5969 272.045 81.239 271.915C80.881 271.784 80.5543 271.564 80.2589 271.254C79.9634 270.942 79.7262 270.52 79.5472 269.989C79.3683 269.455 79.2788 268.784 79.2788 267.977C79.2788 267.205 79.3512 266.52 79.4961 265.923C79.641 265.324 79.8512 264.82 80.1268 264.411C80.4023 263.999 80.7347 263.686 81.1239 263.473C81.516 263.26 81.9577 263.153 82.4492 263.153C82.9379 263.153 83.3725 263.251 83.7532 263.447C84.1367 263.641 84.4492 263.911 84.6907 264.257C84.9322 264.604 85.0884 265.003 85.1594 265.455H84.1197C84.0231 265.062 83.8356 264.737 83.5572 264.479C83.2788 264.22 82.9094 264.091 82.4492 264.091C81.7731 264.091 81.2404 264.385 80.8512 264.973C80.4648 265.561 80.2702 266.386 80.2674 267.449H80.3356C80.4947 267.207 80.6836 267.001 80.9023 266.831C81.1239 266.658 81.3683 266.524 81.6353 266.43C81.9023 266.337 82.185 266.29 82.4833 266.29C82.9833 266.29 83.4407 266.415 83.8555 266.665C84.2702 266.912 84.6026 267.254 84.8526 267.692C85.1026 268.126 85.2276 268.625 85.2276 269.188C85.2276 269.727 85.1069 270.222 84.8654 270.67C84.6239 271.116 84.2844 271.472 83.8469 271.736C83.4123 271.997 82.9009 272.125 82.3129 272.119ZM82.3129 271.182C82.6708 271.182 82.9918 271.092 83.2759 270.913C83.5629 270.734 83.7887 270.494 83.9535 270.193C84.1211 269.892 84.2049 269.557 84.2049 269.188C84.2049 268.827 84.1239 268.499 83.962 268.203C83.8029 267.905 83.5827 267.668 83.3015 267.491C83.0231 267.315 82.7049 267.227 82.3469 267.227C82.0771 267.227 81.8256 267.281 81.5927 267.389C81.3597 267.494 81.1552 267.639 80.979 267.824C80.8058 268.009 80.6694 268.22 80.57 268.459C80.4705 268.695 80.4208 268.943 80.4208 269.205C80.4208 269.551 80.5018 269.875 80.6637 270.176C80.8285 270.477 81.0529 270.72 81.337 270.905C81.6239 271.089 81.9492 271.182 82.3129 271.182Z" fill="#6B7280"/>
<path d="M78.9996 312.21V311.341L82.8349 305.273H83.4656V306.619H83.0394L80.1417 311.205V311.273H85.3065V312.21H78.9996ZM83.1076 314V311.946V311.541V305.273H84.1133V314H83.1076Z" fill="#6B7280"/>
<path d="M79.6378 356V355.233L82.5185 352.08C82.8565 351.71 83.1349 351.389 83.3537 351.116C83.5724 350.841 83.7344 350.582 83.8395 350.341C83.9474 350.097 84.0014 349.841 84.0014 349.574C84.0014 349.267 83.9276 349.001 83.7798 348.777C83.6349 348.553 83.4361 348.379 83.1832 348.257C82.9304 348.135 82.6463 348.074 82.331 348.074C81.9957 348.074 81.7031 348.143 81.4531 348.283C81.206 348.419 81.0142 348.611 80.8778 348.858C80.7443 349.105 80.6776 349.395 80.6776 349.727H79.6719C79.6719 349.216 79.7898 348.767 80.0256 348.381C80.2614 347.994 80.5824 347.693 80.9886 347.477C81.3977 347.261 81.8565 347.153 82.3651 347.153C82.8764 347.153 83.3295 347.261 83.7244 347.477C84.1193 347.693 84.429 347.984 84.6534 348.351C84.8778 348.717 84.9901 349.125 84.9901 349.574C84.9901 349.895 84.9318 350.209 84.8153 350.516C84.7017 350.82 84.5028 351.159 84.2188 351.534C83.9375 351.906 83.5469 352.361 83.0469 352.898L81.0866 354.994V355.062H85.1435V356H79.6378Z" fill="#6B7280"/>
<path d="M82.25 398.119C81.608 398.119 81.0611 397.945 80.6094 397.595C80.1577 397.243 79.8125 396.733 79.5739 396.065C79.3352 395.395 79.2159 394.585 79.2159 393.636C79.2159 392.693 79.3352 391.888 79.5739 391.22C79.8153 390.55 80.1619 390.038 80.6136 389.686C81.0682 389.331 81.6136 389.153 82.25 389.153C82.8864 389.153 83.4304 389.331 83.8821 389.686C84.3366 390.038 84.6832 390.55 84.9219 391.22C85.1634 391.888 85.2841 392.693 85.2841 393.636C85.2841 394.585 85.1648 395.395 84.9261 396.065C84.6875 396.733 84.3423 397.243 83.8906 397.595C83.4389 397.945 82.892 398.119 82.25 398.119ZM82.25 397.182C82.8864 397.182 83.3807 396.875 83.733 396.261C84.0852 395.648 84.2614 394.773 84.2614 393.636C84.2614 392.881 84.1804 392.237 84.0185 391.706C83.8594 391.175 83.6293 390.77 83.3281 390.491C83.0298 390.213 82.6705 390.074 82.25 390.074C81.6193 390.074 81.1264 390.385 80.7713 391.007C80.4162 391.626 80.2386 392.503 80.2386 393.636C80.2386 394.392 80.3182 395.034 80.4773 395.562C80.6364 396.091 80.8651 396.493 81.1634 396.768C81.4645 397.044 81.8267 397.182 82.25 397.182Z" fill="#6B7280"/>
<line x1="106" y1="143.5" x2="751" y2="143.5" stroke="#F3F4F6"/>
<line x1="106" y1="185.5" x2="751" y2="185.5" stroke="#F3F4F6"/>
<line x1="106" y1="227.5" x2="751" y2="227.5" stroke="#F3F4F6"/>
<line x1="106" y1="269.5" x2="751" y2="269.5" stroke="#F3F4F6"/>
<line x1="106" y1="311.5" x2="751" y2="311.5" stroke="#F3F4F6"/>
<line x1="106" y1="353.5" x2="751" y2="353.5" stroke="#F3F4F6"/>
<line x1="106" y1="395.5" x2="751" y2="395.5" stroke="#F3F4F6"/>
<path d="M500 246V393" stroke="#E2E4E9" stroke-dasharray="4 4"/>
<path d="M114.42 416.636C114.42 417.557 114.254 418.352 113.922 419.023C113.589 419.693 113.134 420.21 112.554 420.574C111.974 420.938 111.313 421.119 110.568 421.119C109.824 421.119 109.162 420.938 108.582 420.574C108.003 420.21 107.547 419.693 107.214 419.023C106.882 418.352 106.716 417.557 106.716 416.636C106.716 415.716 106.882 414.92 107.214 414.25C107.547 413.58 108.003 413.062 108.582 412.699C109.162 412.335 109.824 412.153 110.568 412.153C111.313 412.153 111.974 412.335 112.554 412.699C113.134 413.062 113.589 413.58 113.922 414.25C114.254 414.92 114.42 415.716 114.42 416.636ZM113.398 416.636C113.398 415.881 113.271 415.243 113.018 414.723C112.768 414.203 112.429 413.81 112 413.543C111.574 413.276 111.097 413.142 110.568 413.142C110.04 413.142 109.561 413.276 109.132 413.543C108.706 413.81 108.366 414.203 108.114 414.723C107.864 415.243 107.739 415.881 107.739 416.636C107.739 417.392 107.864 418.03 108.114 418.55C108.366 419.07 108.706 419.463 109.132 419.73C109.561 419.997 110.04 420.131 110.568 420.131C111.097 420.131 111.574 419.997 112 419.73C112.429 419.463 112.768 419.07 113.018 418.55C113.271 418.03 113.398 417.392 113.398 416.636ZM118.72 421.136C118.107 421.136 117.578 420.991 117.135 420.702C116.692 420.412 116.351 420.013 116.112 419.504C115.874 418.996 115.754 418.415 115.754 417.761C115.754 417.097 115.876 416.51 116.121 416.001C116.368 415.49 116.712 415.091 117.152 414.804C117.595 414.514 118.112 414.369 118.703 414.369C119.163 414.369 119.578 414.455 119.947 414.625C120.317 414.795 120.619 415.034 120.855 415.341C121.091 415.648 121.237 416.006 121.294 416.415H120.288C120.212 416.116 120.041 415.852 119.777 415.622C119.516 415.389 119.163 415.273 118.72 415.273C118.328 415.273 117.984 415.375 117.689 415.58C117.396 415.781 117.168 416.067 117.003 416.436C116.841 416.803 116.76 417.233 116.76 417.727C116.76 418.233 116.839 418.673 116.999 419.048C117.161 419.423 117.388 419.714 117.68 419.922C117.976 420.129 118.322 420.233 118.72 420.233C118.982 420.233 119.219 420.188 119.432 420.097C119.645 420.006 119.825 419.875 119.973 419.705C120.121 419.534 120.226 419.33 120.288 419.091H121.294C121.237 419.477 121.097 419.825 120.872 420.135C120.651 420.442 120.357 420.686 119.99 420.868C119.626 421.047 119.203 421.136 118.72 421.136ZM125.611 414.455V415.307H122.219V414.455H125.611ZM123.207 412.886H124.213V419.125C124.213 419.409 124.254 419.622 124.337 419.764C124.422 419.903 124.53 419.997 124.661 420.045C124.794 420.091 124.935 420.114 125.082 420.114C125.193 420.114 125.284 420.108 125.355 420.097C125.426 420.082 125.483 420.071 125.526 420.062L125.73 420.966C125.662 420.991 125.567 421.017 125.445 421.043C125.322 421.071 125.168 421.085 124.98 421.085C124.696 421.085 124.418 421.024 124.145 420.902C123.875 420.78 123.651 420.594 123.472 420.344C123.295 420.094 123.207 419.778 123.207 419.398V412.886ZM130.482 421V420.233L133.362 417.08C133.7 416.71 133.979 416.389 134.197 416.116C134.416 415.841 134.578 415.582 134.683 415.341C134.791 415.097 134.845 414.841 134.845 414.574C134.845 414.267 134.771 414.001 134.624 413.777C134.479 413.553 134.28 413.379 134.027 413.257C133.774 413.135 133.49 413.074 133.175 413.074C132.839 413.074 132.547 413.143 132.297 413.283C132.05 413.419 131.858 413.611 131.722 413.858C131.588 414.105 131.521 414.395 131.521 414.727H130.516C130.516 414.216 130.634 413.767 130.869 413.381C131.105 412.994 131.426 412.693 131.832 412.477C132.241 412.261 132.7 412.153 133.209 412.153C133.72 412.153 134.173 412.261 134.568 412.477C134.963 412.693 135.273 412.984 135.497 413.351C135.722 413.717 135.834 414.125 135.834 414.574C135.834 414.895 135.776 415.209 135.659 415.516C135.545 415.82 135.347 416.159 135.062 416.534C134.781 416.906 134.391 417.361 133.891 417.898L131.93 419.994V420.062H135.987V421H130.482ZM140.594 421.119C139.952 421.119 139.405 420.945 138.953 420.595C138.501 420.243 138.156 419.733 137.918 419.065C137.679 418.395 137.56 417.585 137.56 416.636C137.56 415.693 137.679 414.888 137.918 414.22C138.159 413.55 138.506 413.038 138.957 412.686C139.412 412.331 139.957 412.153 140.594 412.153C141.23 412.153 141.774 412.331 142.226 412.686C142.68 413.038 143.027 413.55 143.266 414.22C143.507 414.888 143.628 415.693 143.628 416.636C143.628 417.585 143.509 418.395 143.27 419.065C143.031 419.733 142.686 420.243 142.234 420.595C141.783 420.945 141.236 421.119 140.594 421.119ZM140.594 420.182C141.23 420.182 141.724 419.875 142.077 419.261C142.429 418.648 142.605 417.773 142.605 416.636C142.605 415.881 142.524 415.237 142.362 414.706C142.203 414.175 141.973 413.77 141.672 413.491C141.374 413.213 141.014 413.074 140.594 413.074C139.963 413.074 139.47 413.385 139.115 414.007C138.76 414.626 138.582 415.503 138.582 416.636C138.582 417.392 138.662 418.034 138.821 418.562C138.98 419.091 139.209 419.493 139.507 419.768C139.808 420.044 140.17 420.182 140.594 420.182ZM145.247 421V420.233L148.128 417.08C148.466 416.71 148.744 416.389 148.963 416.116C149.182 415.841 149.344 415.582 149.449 415.341C149.557 415.097 149.611 414.841 149.611 414.574C149.611 414.267 149.537 414.001 149.389 413.777C149.244 413.553 149.045 413.379 148.793 413.257C148.54 413.135 148.256 413.074 147.94 413.074C147.605 413.074 147.312 413.143 147.062 413.283C146.815 413.419 146.624 413.611 146.487 413.858C146.354 414.105 146.287 414.395 146.287 414.727H145.281C145.281 414.216 145.399 413.767 145.635 413.381C145.871 412.994 146.192 412.693 146.598 412.477C147.007 412.261 147.466 412.153 147.974 412.153C148.486 412.153 148.939 412.261 149.334 412.477C149.729 412.693 150.038 412.984 150.263 413.351C150.487 413.717 150.599 414.125 150.599 414.574C150.599 414.895 150.541 415.209 150.425 415.516C150.311 415.82 150.112 416.159 149.828 416.534C149.547 416.906 149.156 417.361 148.656 417.898L146.696 419.994V420.062H150.753V421H145.247ZM155.581 412.273V421H154.524V413.381H154.473L152.342 414.795V413.722L154.524 412.273H155.581Z" fill="#6B7280"/>
<path d="M231.977 412.273V421H230.955L226.199 414.148H226.114V421H225.057V412.273H226.08L230.852 419.142H230.938V412.273H231.977ZM236.615 421.136C236.024 421.136 235.505 420.996 235.059 420.714C234.616 420.433 234.27 420.04 234.02 419.534C233.772 419.028 233.649 418.437 233.649 417.761C233.649 417.08 233.772 416.484 234.02 415.976C234.27 415.467 234.616 415.072 235.059 414.791C235.505 414.51 236.024 414.369 236.615 414.369C237.206 414.369 237.723 414.51 238.166 414.791C238.612 415.072 238.958 415.467 239.206 415.976C239.456 416.484 239.581 417.08 239.581 417.761C239.581 418.437 239.456 419.028 239.206 419.534C238.958 420.04 238.612 420.433 238.166 420.714C237.723 420.996 237.206 421.136 236.615 421.136ZM236.615 420.233C237.064 420.233 237.433 420.118 237.723 419.888C238.012 419.658 238.227 419.355 238.366 418.98C238.505 418.605 238.575 418.199 238.575 417.761C238.575 417.324 238.505 416.916 238.366 416.538C238.227 416.161 238.012 415.855 237.723 415.622C237.433 415.389 237.064 415.273 236.615 415.273C236.166 415.273 235.797 415.389 235.507 415.622C235.217 415.855 235.002 416.161 234.863 416.538C234.724 416.916 234.654 417.324 234.654 417.761C234.654 418.199 234.724 418.605 234.863 418.98C235.002 419.355 235.217 419.658 235.507 419.888C235.797 420.118 236.166 420.233 236.615 420.233ZM246.234 414.455L243.813 421H242.79L240.37 414.455H241.461L243.268 419.67H243.336L245.143 414.455H246.234ZM250.919 421V420.233L253.8 417.08C254.138 416.71 254.416 416.389 254.635 416.116C254.854 415.841 255.016 415.582 255.121 415.341C255.229 415.097 255.283 414.841 255.283 414.574C255.283 414.267 255.209 414.001 255.061 413.777C254.916 413.553 254.717 413.379 254.464 413.257C254.212 413.135 253.928 413.074 253.612 413.074C253.277 413.074 252.984 413.143 252.734 413.283C252.487 413.419 252.295 413.611 252.159 413.858C252.026 414.105 251.959 414.395 251.959 414.727H250.953C250.953 414.216 251.071 413.767 251.307 413.381C251.543 412.994 251.864 412.693 252.27 412.477C252.679 412.261 253.138 412.153 253.646 412.153C254.158 412.153 254.611 412.261 255.006 412.477C255.401 412.693 255.71 412.984 255.935 413.351C256.159 413.717 256.271 414.125 256.271 414.574C256.271 414.895 256.213 415.209 256.097 415.516C255.983 415.82 255.784 416.159 255.5 416.534C255.219 416.906 254.828 417.361 254.328 417.898L252.368 419.994V420.062H256.425V421H250.919ZM261.031 421.119C260.389 421.119 259.842 420.945 259.391 420.595C258.939 420.243 258.594 419.733 258.355 419.065C258.116 418.395 257.997 417.585 257.997 416.636C257.997 415.693 258.116 414.888 258.355 414.22C258.597 413.55 258.943 413.038 259.395 412.686C259.849 412.331 260.395 412.153 261.031 412.153C261.668 412.153 262.212 412.331 262.663 412.686C263.118 413.038 263.464 413.55 263.703 414.22C263.945 414.888 264.065 415.693 264.065 416.636C264.065 417.585 263.946 418.395 263.707 419.065C263.469 419.733 263.124 420.243 262.672 420.595C262.22 420.945 261.673 421.119 261.031 421.119ZM261.031 420.182C261.668 420.182 262.162 419.875 262.514 419.261C262.866 418.648 263.043 417.773 263.043 416.636C263.043 415.881 262.962 415.237 262.8 414.706C262.641 414.175 262.411 413.77 262.109 413.491C261.811 413.213 261.452 413.074 261.031 413.074C260.401 413.074 259.908 413.385 259.553 414.007C259.197 414.626 259.02 415.503 259.02 416.636C259.02 417.392 259.099 418.034 259.259 418.562C259.418 419.091 259.646 419.493 259.945 419.768C260.246 420.044 260.608 420.182 261.031 420.182ZM265.685 421V420.233L268.565 417.08C268.903 416.71 269.182 416.389 269.401 416.116C269.619 415.841 269.781 415.582 269.886 415.341C269.994 415.097 270.048 414.841 270.048 414.574C270.048 414.267 269.974 414.001 269.827 413.777C269.682 413.553 269.483 413.379 269.23 413.257C268.977 413.135 268.693 413.074 268.378 413.074C268.043 413.074 267.75 413.143 267.5 413.283C267.253 413.419 267.061 413.611 266.925 413.858C266.791 414.105 266.724 414.395 266.724 414.727H265.719C265.719 414.216 265.837 413.767 266.072 413.381C266.308 412.994 266.629 412.693 267.036 412.477C267.445 412.261 267.903 412.153 268.412 412.153C268.923 412.153 269.376 412.261 269.771 412.477C270.166 412.693 270.476 412.984 270.7 413.351C270.925 413.717 271.037 414.125 271.037 414.574C271.037 414.895 270.979 415.209 270.862 415.516C270.749 415.82 270.55 416.159 270.266 416.534C269.984 416.906 269.594 417.361 269.094 417.898L267.134 419.994V420.062H271.19V421H265.685ZM276.018 412.273V421H274.962V413.381H274.911L272.78 414.795V413.722L274.962 412.273H276.018Z" fill="#6B7280"/>
<path d="M347.75 421H345.057V412.273H347.869C348.716 412.273 349.44 412.447 350.043 412.797C350.645 413.143 351.107 413.642 351.428 414.293C351.749 414.94 351.909 415.716 351.909 416.619C351.909 417.528 351.747 418.311 351.423 418.967C351.099 419.621 350.628 420.124 350.009 420.476C349.389 420.825 348.636 421 347.75 421ZM346.114 420.062H347.682C348.403 420.062 349.001 419.923 349.476 419.645C349.95 419.366 350.304 418.97 350.537 418.456C350.77 417.942 350.886 417.33 350.886 416.619C350.886 415.915 350.771 415.308 350.541 414.8C350.311 414.288 349.967 413.896 349.51 413.624C349.053 413.348 348.483 413.21 347.801 413.21H346.114V420.062ZM356.29 421.136C355.659 421.136 355.115 420.997 354.658 420.719C354.203 420.438 353.852 420.045 353.605 419.543C353.361 419.037 353.239 418.449 353.239 417.778C353.239 417.108 353.361 416.517 353.605 416.006C353.852 415.491 354.196 415.091 354.636 414.804C355.08 414.514 355.597 414.369 356.188 414.369C356.528 414.369 356.865 414.426 357.197 414.54C357.53 414.653 357.832 414.838 358.105 415.094C358.378 415.347 358.595 415.682 358.757 416.099C358.919 416.517 359 417.031 359 417.642V418.068H353.955V417.199H357.977C357.977 416.83 357.903 416.5 357.756 416.21C357.611 415.92 357.403 415.692 357.134 415.524C356.866 415.357 356.551 415.273 356.188 415.273C355.787 415.273 355.44 415.372 355.148 415.571C354.858 415.767 354.635 416.023 354.479 416.338C354.322 416.653 354.244 416.991 354.244 417.352V417.932C354.244 418.426 354.33 418.845 354.5 419.189C354.673 419.53 354.913 419.79 355.22 419.969C355.527 420.145 355.884 420.233 356.29 420.233C356.554 420.233 356.793 420.196 357.006 420.122C357.222 420.045 357.408 419.932 357.564 419.781C357.72 419.628 357.841 419.437 357.926 419.21L358.898 419.483C358.795 419.812 358.624 420.102 358.382 420.352C358.141 420.599 357.842 420.793 357.487 420.932C357.132 421.068 356.733 421.136 356.29 421.136ZM363.189 421.136C362.575 421.136 362.047 420.991 361.604 420.702C361.161 420.412 360.82 420.013 360.581 419.504C360.342 418.996 360.223 418.415 360.223 417.761C360.223 417.097 360.345 416.51 360.589 416.001C360.837 415.49 361.18 415.091 361.621 414.804C362.064 414.514 362.581 414.369 363.172 414.369C363.632 414.369 364.047 414.455 364.416 414.625C364.786 414.795 365.088 415.034 365.324 415.341C365.56 415.648 365.706 416.006 365.763 416.415H364.757C364.68 416.116 364.51 415.852 364.246 415.622C363.984 415.389 363.632 415.273 363.189 415.273C362.797 415.273 362.453 415.375 362.158 415.58C361.865 415.781 361.636 416.067 361.472 416.436C361.31 416.803 361.229 417.233 361.229 417.727C361.229 418.233 361.308 418.673 361.467 419.048C361.629 419.423 361.857 419.714 362.149 419.922C362.445 420.129 362.791 420.233 363.189 420.233C363.45 420.233 363.688 420.188 363.901 420.097C364.114 420.006 364.294 419.875 364.442 419.705C364.589 419.534 364.695 419.33 364.757 419.091H365.763C365.706 419.477 365.565 419.825 365.341 420.135C365.119 420.442 364.825 420.686 364.459 420.868C364.095 421.047 363.672 421.136 363.189 421.136ZM370.591 421V420.233L373.472 417.08C373.81 416.71 374.088 416.389 374.307 416.116C374.526 415.841 374.688 415.582 374.793 415.341C374.901 415.097 374.955 414.841 374.955 414.574C374.955 414.267 374.881 414.001 374.733 413.777C374.588 413.553 374.389 413.379 374.136 413.257C373.884 413.135 373.599 413.074 373.284 413.074C372.949 413.074 372.656 413.143 372.406 413.283C372.159 413.419 371.967 413.611 371.831 413.858C371.697 414.105 371.631 414.395 371.631 414.727H370.625C370.625 414.216 370.743 413.767 370.979 413.381C371.214 412.994 371.536 412.693 371.942 412.477C372.351 412.261 372.81 412.153 373.318 412.153C373.83 412.153 374.283 412.261 374.678 412.477C375.072 412.693 375.382 412.984 375.607 413.351C375.831 413.717 375.943 414.125 375.943 414.574C375.943 414.895 375.885 415.209 375.768 415.516C375.655 415.82 375.456 416.159 375.172 416.534C374.891 416.906 374.5 417.361 374 417.898L372.04 419.994V420.062H376.097V421H370.591ZM380.703 421.119C380.061 421.119 379.514 420.945 379.062 420.595C378.611 420.243 378.266 419.733 378.027 419.065C377.788 418.395 377.669 417.585 377.669 416.636C377.669 415.693 377.788 414.888 378.027 414.22C378.268 413.55 378.615 413.038 379.067 412.686C379.521 412.331 380.067 412.153 380.703 412.153C381.339 412.153 381.884 412.331 382.335 412.686C382.79 413.038 383.136 413.55 383.375 414.22C383.616 414.888 383.737 415.693 383.737 416.636C383.737 417.585 383.618 418.395 383.379 419.065C383.141 419.733 382.795 420.243 382.344 420.595C381.892 420.945 381.345 421.119 380.703 421.119ZM380.703 420.182C381.339 420.182 381.834 419.875 382.186 419.261C382.538 418.648 382.714 417.773 382.714 416.636C382.714 415.881 382.634 415.237 382.472 414.706C382.313 414.175 382.082 413.77 381.781 413.491C381.483 413.213 381.124 413.074 380.703 413.074C380.072 413.074 379.58 413.385 379.224 414.007C378.869 414.626 378.692 415.503 378.692 416.636C378.692 417.392 378.771 418.034 378.93 418.562C379.089 419.091 379.318 419.493 379.616 419.768C379.918 420.044 380.28 420.182 380.703 420.182ZM385.357 421V420.233L388.237 417.08C388.575 416.71 388.854 416.389 389.072 416.116C389.291 415.841 389.453 415.582 389.558 415.341C389.666 415.097 389.72 414.841 389.72 414.574C389.72 414.267 389.646 414.001 389.499 413.777C389.354 413.553 389.155 413.379 388.902 413.257C388.649 413.135 388.365 413.074 388.05 413.074C387.714 413.074 387.422 413.143 387.172 413.283C386.925 413.419 386.733 413.611 386.597 413.858C386.463 414.105 386.396 414.395 386.396 414.727H385.391C385.391 414.216 385.509 413.767 385.744 413.381C385.98 412.994 386.301 412.693 386.707 412.477C387.116 412.261 387.575 412.153 388.084 412.153C388.595 412.153 389.048 412.261 389.443 412.477C389.838 412.693 390.148 412.984 390.372 413.351C390.597 413.717 390.709 414.125 390.709 414.574C390.709 414.895 390.651 415.209 390.534 415.516C390.42 415.82 390.222 416.159 389.938 416.534C389.656 416.906 389.266 417.361 388.766 417.898L386.805 419.994V420.062H390.862V421H385.357ZM395.69 412.273V421H394.634V413.381H394.582L392.452 414.795V413.722L394.634 412.273H395.69Z" fill="#6B7280"/>
<path d="M468.398 412.273H469.455V418.511C469.455 419.068 469.352 419.541 469.148 419.93C468.943 420.32 468.655 420.615 468.283 420.817C467.911 421.018 467.472 421.119 466.966 421.119C466.489 421.119 466.064 421.033 465.692 420.859C465.32 420.683 465.027 420.433 464.814 420.109C464.601 419.786 464.494 419.401 464.494 418.955H465.534C465.534 419.202 465.595 419.418 465.717 419.602C465.842 419.784 466.013 419.926 466.229 420.028C466.445 420.131 466.69 420.182 466.966 420.182C467.27 420.182 467.528 420.118 467.741 419.99C467.955 419.862 468.116 419.675 468.227 419.428C468.341 419.178 468.398 418.872 468.398 418.511V412.273ZM473.362 421.153C472.947 421.153 472.571 421.075 472.233 420.919C471.895 420.76 471.626 420.531 471.428 420.233C471.229 419.932 471.129 419.568 471.129 419.142C471.129 418.767 471.203 418.463 471.351 418.23C471.499 417.994 471.696 417.81 471.943 417.676C472.19 417.543 472.463 417.443 472.761 417.378C473.063 417.31 473.365 417.256 473.669 417.216C474.067 417.165 474.389 417.126 474.636 417.101C474.886 417.072 475.068 417.026 475.182 416.96C475.298 416.895 475.357 416.781 475.357 416.619V416.585C475.357 416.165 475.241 415.838 475.011 415.605C474.784 415.372 474.439 415.256 473.976 415.256C473.496 415.256 473.119 415.361 472.847 415.571C472.574 415.781 472.382 416.006 472.271 416.244L471.317 415.903C471.487 415.506 471.714 415.196 471.999 414.974C472.286 414.75 472.598 414.594 472.936 414.506C473.277 414.415 473.612 414.369 473.942 414.369C474.152 414.369 474.393 414.395 474.666 414.446C474.942 414.494 475.207 414.595 475.463 414.749C475.722 414.902 475.936 415.134 476.107 415.443C476.277 415.753 476.362 416.168 476.362 416.688V421H475.357V420.114H475.305C475.237 420.256 475.124 420.408 474.964 420.57C474.805 420.732 474.594 420.869 474.33 420.983C474.065 421.097 473.743 421.153 473.362 421.153ZM473.516 420.25C473.913 420.25 474.249 420.172 474.521 420.016C474.797 419.859 475.004 419.658 475.143 419.411C475.286 419.163 475.357 418.903 475.357 418.631V417.71C475.314 417.761 475.22 417.808 475.075 417.851C474.933 417.891 474.768 417.926 474.581 417.957C474.396 417.986 474.216 418.011 474.04 418.034C473.866 418.054 473.726 418.071 473.618 418.085C473.357 418.119 473.112 418.175 472.885 418.251C472.661 418.325 472.479 418.437 472.339 418.588C472.203 418.736 472.135 418.937 472.135 419.193C472.135 419.543 472.264 419.807 472.523 419.986C472.784 420.162 473.115 420.25 473.516 420.25ZM479.203 417.062V421H478.198V414.455H479.169V415.477H479.255C479.408 415.145 479.641 414.878 479.953 414.676C480.266 414.472 480.669 414.369 481.164 414.369C481.607 414.369 481.995 414.46 482.327 414.642C482.659 414.821 482.918 415.094 483.103 415.46C483.287 415.824 483.38 416.284 483.38 416.841V421H482.374V416.909C482.374 416.395 482.24 415.994 481.973 415.707C481.706 415.418 481.34 415.273 480.874 415.273C480.553 415.273 480.266 415.342 480.013 415.482C479.763 415.621 479.566 415.824 479.421 416.091C479.276 416.358 479.203 416.682 479.203 417.062ZM488.575 421V420.233L491.456 417.08C491.794 416.71 492.072 416.389 492.291 416.116C492.51 415.841 492.672 415.582 492.777 415.341C492.885 415.097 492.939 414.841 492.939 414.574C492.939 414.267 492.865 414.001 492.717 413.777C492.572 413.553 492.374 413.379 492.121 413.257C491.868 413.135 491.584 413.074 491.268 413.074C490.933 413.074 490.641 413.143 490.391 413.283C490.143 413.419 489.952 413.611 489.815 413.858C489.682 414.105 489.615 414.395 489.615 414.727H488.609C488.609 414.216 488.727 413.767 488.963 413.381C489.199 412.994 489.52 412.693 489.926 412.477C490.335 412.261 490.794 412.153 491.303 412.153C491.814 412.153 492.267 412.261 492.662 412.477C493.057 412.693 493.366 412.984 493.591 413.351C493.815 413.717 493.928 414.125 493.928 414.574C493.928 414.895 493.869 415.209 493.753 415.516C493.639 415.82 493.44 416.159 493.156 416.534C492.875 416.906 492.484 417.361 491.984 417.898L490.024 419.994V420.062H494.081V421H488.575ZM498.688 421.119C498.045 421.119 497.499 420.945 497.047 420.595C496.595 420.243 496.25 419.733 496.011 419.065C495.773 418.395 495.653 417.585 495.653 416.636C495.653 415.693 495.773 414.888 496.011 414.22C496.253 413.55 496.599 413.038 497.051 412.686C497.506 412.331 498.051 412.153 498.688 412.153C499.324 412.153 499.868 412.331 500.32 412.686C500.774 413.038 501.121 413.55 501.359 414.22C501.601 414.888 501.722 415.693 501.722 416.636C501.722 417.585 501.602 418.395 501.364 419.065C501.125 419.733 500.78 420.243 500.328 420.595C499.876 420.945 499.33 421.119 498.688 421.119ZM498.688 420.182C499.324 420.182 499.818 419.875 500.17 419.261C500.523 418.648 500.699 417.773 500.699 416.636C500.699 415.881 500.618 415.237 500.456 414.706C500.297 414.175 500.067 413.77 499.766 413.491C499.467 413.213 499.108 413.074 498.688 413.074C498.057 413.074 497.564 413.385 497.209 414.007C496.854 414.626 496.676 415.503 496.676 416.636C496.676 417.392 496.756 418.034 496.915 418.562C497.074 419.091 497.303 419.493 497.601 419.768C497.902 420.044 498.264 420.182 498.688 420.182ZM503.341 421V420.233L506.222 417.08C506.56 416.71 506.838 416.389 507.057 416.116C507.276 415.841 507.438 415.582 507.543 415.341C507.651 415.097 507.705 414.841 507.705 414.574C507.705 414.267 507.631 414.001 507.483 413.777C507.338 413.553 507.139 413.379 506.886 413.257C506.634 413.135 506.349 413.074 506.034 413.074C505.699 413.074 505.406 413.143 505.156 413.283C504.909 413.419 504.717 413.611 504.581 413.858C504.447 414.105 504.381 414.395 504.381 414.727H503.375C503.375 414.216 503.493 413.767 503.729 413.381C503.964 412.994 504.286 412.693 504.692 412.477C505.101 412.261 505.56 412.153 506.068 412.153C506.58 412.153 507.033 412.261 507.428 412.477C507.822 412.693 508.132 412.984 508.357 413.351C508.581 413.717 508.693 414.125 508.693 414.574C508.693 414.895 508.635 415.209 508.518 415.516C508.405 415.82 508.206 416.159 507.922 416.534C507.641 416.906 507.25 417.361 506.75 417.898L504.79 419.994V420.062H508.847V421H503.341ZM510.607 421V420.233L513.487 417.08C513.825 416.71 514.104 416.389 514.322 416.116C514.541 415.841 514.703 415.582 514.808 415.341C514.916 415.097 514.97 414.841 514.97 414.574C514.97 414.267 514.896 414.001 514.749 413.777C514.604 413.553 514.405 413.379 514.152 413.257C513.899 413.135 513.615 413.074 513.3 413.074C512.964 413.074 512.672 413.143 512.422 413.283C512.175 413.419 511.983 413.611 511.847 413.858C511.713 414.105 511.646 414.395 511.646 414.727H510.641C510.641 414.216 510.759 413.767 510.994 413.381C511.23 412.994 511.551 412.693 511.957 412.477C512.366 412.261 512.825 412.153 513.334 412.153C513.845 412.153 514.298 412.261 514.693 412.477C515.088 412.693 515.398 412.984 515.622 413.351C515.847 413.717 515.959 414.125 515.959 414.574C515.959 414.895 515.901 415.209 515.784 415.516C515.67 415.82 515.472 416.159 515.188 416.534C514.906 416.906 514.516 417.361 514.016 417.898L512.055 419.994V420.062H516.112V421H510.607Z" fill="#6B7280"/>
<path d="M584.057 421V412.273H589.29V413.21H585.114V416.159H588.898V417.097H585.114V421H584.057ZM593.227 421.136C592.597 421.136 592.053 420.997 591.595 420.719C591.141 420.438 590.79 420.045 590.543 419.543C590.298 419.037 590.176 418.449 590.176 417.778C590.176 417.108 590.298 416.517 590.543 416.006C590.79 415.491 591.134 415.091 591.574 414.804C592.017 414.514 592.534 414.369 593.125 414.369C593.466 414.369 593.803 414.426 594.135 414.54C594.467 414.653 594.77 414.838 595.043 415.094C595.315 415.347 595.533 415.682 595.695 416.099C595.857 416.517 595.938 417.031 595.938 417.642V418.068H590.892V417.199H594.915C594.915 416.83 594.841 416.5 594.693 416.21C594.548 415.92 594.341 415.692 594.071 415.524C593.804 415.357 593.489 415.273 593.125 415.273C592.724 415.273 592.378 415.372 592.085 415.571C591.795 415.767 591.572 416.023 591.416 416.338C591.26 416.653 591.182 416.991 591.182 417.352V417.932C591.182 418.426 591.267 418.845 591.438 419.189C591.611 419.53 591.851 419.79 592.158 419.969C592.464 420.145 592.821 420.233 593.227 420.233C593.491 420.233 593.73 420.196 593.943 420.122C594.159 420.045 594.345 419.932 594.501 419.781C594.658 419.628 594.778 419.437 594.864 419.21L595.835 419.483C595.733 419.812 595.561 420.102 595.32 420.352C595.078 420.599 594.78 420.793 594.425 420.932C594.07 421.068 593.67 421.136 593.227 421.136ZM597.604 421V412.273H598.609V415.494H598.695C598.768 415.381 598.871 415.236 599.001 415.06C599.135 414.881 599.325 414.722 599.572 414.582C599.822 414.44 600.161 414.369 600.587 414.369C601.138 414.369 601.624 414.507 602.044 414.783C602.464 415.058 602.793 415.449 603.028 415.955C603.264 416.46 603.382 417.057 603.382 417.744C603.382 418.438 603.264 419.038 603.028 419.547C602.793 420.053 602.466 420.445 602.048 420.723C601.631 420.999 601.149 421.136 600.604 421.136C600.183 421.136 599.847 421.067 599.594 420.928C599.341 420.786 599.146 420.625 599.01 420.446C598.874 420.264 598.768 420.114 598.695 419.994H598.575V421H597.604ZM598.592 417.727C598.592 418.222 598.665 418.658 598.81 419.036C598.955 419.411 599.166 419.705 599.445 419.918C599.723 420.128 600.064 420.233 600.467 420.233C600.888 420.233 601.239 420.122 601.52 419.901C601.804 419.676 602.017 419.375 602.159 418.997C602.304 418.616 602.376 418.193 602.376 417.727C602.376 417.267 602.305 416.852 602.163 416.483C602.024 416.111 601.813 415.817 601.528 415.601C601.247 415.382 600.893 415.273 600.467 415.273C600.058 415.273 599.714 415.376 599.436 415.584C599.158 415.788 598.947 416.075 598.805 416.445C598.663 416.811 598.592 417.239 598.592 417.727ZM608.278 421V420.233L611.159 417.08C611.497 416.71 611.776 416.389 611.994 416.116C612.213 415.841 612.375 415.582 612.48 415.341C612.588 415.097 612.642 414.841 612.642 414.574C612.642 414.267 612.568 414.001 612.42 413.777C612.276 413.553 612.077 413.379 611.824 413.257C611.571 413.135 611.287 413.074 610.972 413.074C610.636 413.074 610.344 413.143 610.094 413.283C609.847 413.419 609.655 413.611 609.518 413.858C609.385 414.105 609.318 414.395 609.318 414.727H608.312C608.312 414.216 608.43 413.767 608.666 413.381C608.902 412.994 609.223 412.693 609.629 412.477C610.038 412.261 610.497 412.153 611.006 412.153C611.517 412.153 611.97 412.261 612.365 412.477C612.76 412.693 613.07 412.984 613.294 413.351C613.518 413.717 613.631 414.125 613.631 414.574C613.631 414.895 613.572 415.209 613.456 415.516C613.342 415.82 613.143 416.159 612.859 416.534C612.578 416.906 612.188 417.361 611.688 417.898L609.727 419.994V420.062H613.784V421H608.278ZM618.391 421.119C617.749 421.119 617.202 420.945 616.75 420.595C616.298 420.243 615.953 419.733 615.714 419.065C615.476 418.395 615.357 417.585 615.357 416.636C615.357 415.693 615.476 414.888 615.714 414.22C615.956 413.55 616.303 413.038 616.754 412.686C617.209 412.331 617.754 412.153 618.391 412.153C619.027 412.153 619.571 412.331 620.023 412.686C620.477 413.038 620.824 413.55 621.062 414.22C621.304 414.888 621.425 415.693 621.425 416.636C621.425 417.585 621.305 418.395 621.067 419.065C620.828 419.733 620.483 420.243 620.031 420.595C619.58 420.945 619.033 421.119 618.391 421.119ZM618.391 420.182C619.027 420.182 619.521 419.875 619.874 419.261C620.226 418.648 620.402 417.773 620.402 416.636C620.402 415.881 620.321 415.237 620.159 414.706C620 414.175 619.77 413.77 619.469 413.491C619.17 413.213 618.811 413.074 618.391 413.074C617.76 413.074 617.267 413.385 616.912 414.007C616.557 414.626 616.379 415.503 616.379 416.636C616.379 417.392 616.459 418.034 616.618 418.562C616.777 419.091 617.006 419.493 617.304 419.768C617.605 420.044 617.967 420.182 618.391 420.182ZM623.044 421V420.233L625.925 417.08C626.263 416.71 626.541 416.389 626.76 416.116C626.979 415.841 627.141 415.582 627.246 415.341C627.354 415.097 627.408 414.841 627.408 414.574C627.408 414.267 627.334 414.001 627.186 413.777C627.041 413.553 626.842 413.379 626.589 413.257C626.337 413.135 626.053 413.074 625.737 413.074C625.402 413.074 625.109 413.143 624.859 413.283C624.612 413.419 624.42 413.611 624.284 413.858C624.151 414.105 624.084 414.395 624.084 414.727H623.078C623.078 414.216 623.196 413.767 623.432 413.381C623.668 412.994 623.989 412.693 624.395 412.477C624.804 412.261 625.263 412.153 625.771 412.153C626.283 412.153 626.736 412.261 627.131 412.477C627.526 412.693 627.835 412.984 628.06 413.351C628.284 413.717 628.396 414.125 628.396 414.574C628.396 414.895 628.338 415.209 628.222 415.516C628.108 415.82 627.909 416.159 627.625 416.534C627.344 416.906 626.953 417.361 626.453 417.898L624.493 419.994V420.062H628.55V421H623.044ZM630.31 421V420.233L633.19 417.08C633.528 416.71 633.807 416.389 634.026 416.116C634.244 415.841 634.406 415.582 634.511 415.341C634.619 415.097 634.673 414.841 634.673 414.574C634.673 414.267 634.599 414.001 634.452 413.777C634.307 413.553 634.108 413.379 633.855 413.257C633.602 413.135 633.318 413.074 633.003 413.074C632.668 413.074 632.375 413.143 632.125 413.283C631.878 413.419 631.686 413.611 631.55 413.858C631.416 414.105 631.349 414.395 631.349 414.727H630.344C630.344 414.216 630.462 413.767 630.697 413.381C630.933 412.994 631.254 412.693 631.661 412.477C632.07 412.261 632.528 412.153 633.037 412.153C633.548 412.153 634.001 412.261 634.396 412.477C634.791 412.693 635.101 412.984 635.325 413.351C635.55 413.717 635.662 414.125 635.662 414.574C635.662 414.895 635.604 415.209 635.487 415.516C635.374 415.82 635.175 416.159 634.891 416.534C634.609 416.906 634.219 417.361 633.719 417.898L631.759 419.994V420.062H635.815V421H630.31Z" fill="#6B7280"/>
<path d="M704.057 412.273H705.318L708.284 419.517H708.386L711.352 412.273H712.614V421H711.625V414.369H711.54L708.812 421H707.858L705.131 414.369H705.045V421H704.057V412.273ZM716.522 421.153C716.108 421.153 715.731 421.075 715.393 420.919C715.055 420.76 714.787 420.531 714.588 420.233C714.389 419.932 714.289 419.568 714.289 419.142C714.289 418.767 714.363 418.463 714.511 418.23C714.659 417.994 714.856 417.81 715.103 417.676C715.35 417.543 715.623 417.443 715.922 417.378C716.223 417.31 716.525 417.256 716.829 417.216C717.227 417.165 717.549 417.126 717.797 417.101C718.047 417.072 718.228 417.026 718.342 416.96C718.458 416.895 718.517 416.781 718.517 416.619V416.585C718.517 416.165 718.402 415.838 718.172 415.605C717.944 415.372 717.599 415.256 717.136 415.256C716.656 415.256 716.279 415.361 716.007 415.571C715.734 415.781 715.542 416.006 715.431 416.244L714.477 415.903C714.647 415.506 714.875 415.196 715.159 414.974C715.446 414.75 715.758 414.594 716.096 414.506C716.437 414.415 716.772 414.369 717.102 414.369C717.312 414.369 717.554 414.395 717.826 414.446C718.102 414.494 718.368 414.595 718.623 414.749C718.882 414.902 719.096 415.134 719.267 415.443C719.437 415.753 719.522 416.168 719.522 416.688V421H718.517V420.114H718.466C718.397 420.256 718.284 420.408 718.125 420.57C717.966 420.732 717.754 420.869 717.49 420.983C717.225 421.097 716.903 421.153 716.522 421.153ZM716.676 420.25C717.074 420.25 717.409 420.172 717.681 420.016C717.957 419.859 718.164 419.658 718.304 419.411C718.446 419.163 718.517 418.903 718.517 418.631V417.71C718.474 417.761 718.38 417.808 718.235 417.851C718.093 417.891 717.929 417.926 717.741 417.957C717.556 417.986 717.376 418.011 717.2 418.034C717.027 418.054 716.886 418.071 716.778 418.085C716.517 418.119 716.272 418.175 716.045 418.251C715.821 418.325 715.639 418.437 715.5 418.588C715.363 418.736 715.295 418.937 715.295 419.193C715.295 419.543 715.424 419.807 715.683 419.986C715.944 420.162 716.275 420.25 716.676 420.25ZM721.358 421V414.455H722.33V415.443H722.398C722.517 415.119 722.733 414.857 723.045 414.655C723.358 414.453 723.71 414.352 724.102 414.352C724.176 414.352 724.268 414.354 724.379 414.357C724.49 414.359 724.574 414.364 724.631 414.369V415.392C724.597 415.384 724.518 415.371 724.396 415.354C724.277 415.334 724.151 415.324 724.017 415.324C723.699 415.324 723.415 415.391 723.165 415.524C722.918 415.655 722.722 415.837 722.577 416.07C722.435 416.3 722.364 416.562 722.364 416.858V421H721.358ZM729.181 421V420.233L732.061 417.08C732.4 416.71 732.678 416.389 732.897 416.116C733.115 415.841 733.277 415.582 733.382 415.341C733.49 415.097 733.544 414.841 733.544 414.574C733.544 414.267 733.471 414.001 733.323 413.777C733.178 413.553 732.979 413.379 732.726 413.257C732.473 413.135 732.189 413.074 731.874 413.074C731.539 413.074 731.246 413.143 730.996 413.283C730.749 413.419 730.557 413.611 730.421 413.858C730.287 414.105 730.221 414.395 730.221 414.727H729.215C729.215 414.216 729.333 413.767 729.569 413.381C729.804 412.994 730.125 412.693 730.532 412.477C730.941 412.261 731.4 412.153 731.908 412.153C732.419 412.153 732.873 412.261 733.267 412.477C733.662 412.693 733.972 412.984 734.196 413.351C734.421 413.717 734.533 414.125 734.533 414.574C734.533 414.895 734.475 415.209 734.358 415.516C734.245 415.82 734.046 416.159 733.762 416.534C733.48 416.906 733.09 417.361 732.59 417.898L730.63 419.994V420.062H734.686V421H729.181ZM739.293 421.119C738.651 421.119 738.104 420.945 737.652 420.595C737.201 420.243 736.855 419.733 736.617 419.065C736.378 418.395 736.259 417.585 736.259 416.636C736.259 415.693 736.378 414.888 736.617 414.22C736.858 413.55 737.205 413.038 737.657 412.686C738.111 412.331 738.657 412.153 739.293 412.153C739.929 412.153 740.473 412.331 740.925 412.686C741.38 413.038 741.726 413.55 741.965 414.22C742.206 414.888 742.327 415.693 742.327 416.636C742.327 417.585 742.208 418.395 741.969 419.065C741.73 419.733 741.385 420.243 740.934 420.595C740.482 420.945 739.935 421.119 739.293 421.119ZM739.293 420.182C739.929 420.182 740.424 419.875 740.776 419.261C741.128 418.648 741.304 417.773 741.304 416.636C741.304 415.881 741.223 415.237 741.061 414.706C740.902 414.175 740.672 413.77 740.371 413.491C740.073 413.213 739.713 413.074 739.293 413.074C738.662 413.074 738.169 413.385 737.814 414.007C737.459 414.626 737.282 415.503 737.282 416.636C737.282 417.392 737.361 418.034 737.52 418.562C737.679 419.091 737.908 419.493 738.206 419.768C738.507 420.044 738.87 420.182 739.293 420.182ZM743.946 421V420.233L746.827 417.08C747.165 416.71 747.444 416.389 747.662 416.116C747.881 415.841 748.043 415.582 748.148 415.341C748.256 415.097 748.31 414.841 748.31 414.574C748.31 414.267 748.236 414.001 748.088 413.777C747.944 413.553 747.745 413.379 747.492 413.257C747.239 413.135 746.955 413.074 746.64 413.074C746.304 413.074 746.012 413.143 745.762 413.283C745.515 413.419 745.323 413.611 745.186 413.858C745.053 414.105 744.986 414.395 744.986 414.727H743.98C743.98 414.216 744.098 413.767 744.334 413.381C744.57 412.994 744.891 412.693 745.297 412.477C745.706 412.261 746.165 412.153 746.674 412.153C747.185 412.153 747.638 412.261 748.033 412.477C748.428 412.693 748.738 412.984 748.962 413.351C749.186 413.717 749.299 414.125 749.299 414.574C749.299 414.895 749.24 415.209 749.124 415.516C749.01 415.82 748.811 416.159 748.527 416.534C748.246 416.906 747.855 417.361 747.355 417.898L745.395 419.994V420.062H749.452V421H743.946ZM751.212 421V420.233L754.093 417.08C754.431 416.71 754.709 416.389 754.928 416.116C755.147 415.841 755.309 415.582 755.414 415.341C755.522 415.097 755.576 414.841 755.576 414.574C755.576 414.267 755.502 414.001 755.354 413.777C755.209 413.553 755.01 413.379 754.757 413.257C754.505 413.135 754.221 413.074 753.905 413.074C753.57 413.074 753.277 413.143 753.027 413.283C752.78 413.419 752.588 413.611 752.452 413.858C752.319 414.105 752.252 414.395 752.252 414.727H751.246C751.246 414.216 751.364 413.767 751.6 413.381C751.836 412.994 752.157 412.693 752.563 412.477C752.972 412.261 753.431 412.153 753.939 412.153C754.451 412.153 754.904 412.261 755.299 412.477C755.694 412.693 756.003 412.984 756.228 413.351C756.452 413.717 756.564 414.125 756.564 414.574C756.564 414.895 756.506 415.209 756.39 415.516C756.276 415.82 756.077 416.159 755.793 416.534C755.512 416.906 755.121 417.361 754.621 417.898L752.661 419.994V420.062H756.718V421H751.212Z" fill="#6B7280"/>
<path d="M120 276.311C130.209 273.81 154.112 266.81 168.045 258.809C185.461 248.808 189.665 236.307 247.318 248.808C304.972 261.309 295.964 255.309 315.182 258.809C330.556 261.61 360.824 279.311 374.036 287.812C384.246 295.646 409.229 304.813 427.486 278.811C450.307 246.308 485.14 228.807 504.358 238.808C523.575 248.808 561.411 274.31 574.022 275.31C586.634 276.31 591.439 275.31 640.084 252.308C679 233.907 739.576 254.309 765 266.81" stroke="#FB896B" stroke-width="4" stroke-linecap="round"/>
<path d="M120 316.311C130.209 313.81 150.567 332.001 164.5 324C181.916 313.999 193.846 263.999 251.5 276.5C309.154 289.001 304.282 277 323.5 280.5C338.874 283.3 360.824 319.311 374.036 327.812C384.246 335.646 405.243 332.502 423.5 306.5C446.321 273.997 498 280.5 518.5 280.5C540.164 280.5 569.388 256 582 257C594.612 258 635.355 309.002 684 286C722.916 267.598 739.576 294.309 765 306.81" stroke="#6956E5" stroke-width="4" stroke-linecap="round"/>
<g filter="url(#filter1_f_2_72)">
<path d="M120 326.311C130.209 323.81 150.567 342.001 164.5 334C181.916 323.999 193.846 273.999 251.5 286.5C309.154 299.001 304.282 287 323.5 290.5C338.874 293.3 360.824 329.311 374.036 337.812C384.246 345.646 405.243 342.502 423.5 316.5C446.321 283.997 499.282 280.499 518.5 290.5C537.718 300.501 569.388 266 582 267C594.612 268 635.355 319.002 684 296C722.916 277.598 739.576 304.309 765 316.81" stroke="#BEB5F4" stroke-width="4" stroke-linecap="round"/>
</g>
<g filter="url(#filter2_f_2_72)">
<path d="M120 283.311C130.209 280.81 154.112 273.81 168.045 265.809C185.461 255.808 189.665 243.307 247.318 255.808C304.972 268.309 295.964 262.309 315.182 265.809C330.556 268.61 360.824 286.311 374.036 294.812C384.246 302.646 409.229 311.813 427.486 285.811C450.307 253.308 485.14 235.807 504.358 245.808C523.575 255.808 561.411 281.31 574.022 282.31C586.634 283.31 591.439 282.31 640.084 259.308C679 240.907 739.576 261.309 765 273.81" stroke="#FB896B" stroke-opacity="0.5" stroke-width="4" stroke-linecap="round"/>
</g>
<g filter="url(#filter3_d_2_72)">
<rect x="493" y="229" width="14" height="14" rx="7" fill="#FB896B"/>
<rect x="494" y="230" width="12" height="12" rx="6" stroke="white" stroke-width="2"/>
</g>
<g filter="url(#filter4_d_2_72)">
<path fill-rule="evenodd" clip-rule="evenodd" d="M449 127C443.477 127 439 131.477 439 137V197C439 202.523 443.477 207 449 207H489.608L499.134 223.5C499.519 224.167 500.481 224.167 500.866 223.5L510.392 207H551C556.523 207 561 202.523 561 197V137C561 131.477 556.523 127 551 127H449Z" fill="white"/>
</g>
<circle cx="462" cy="153" r="7" fill="#F5866A"/>
<path d="M478.322 158L482.767 149.21V149.136H477.626V147.818H484.358V149.18L479.928 158H478.322ZM489.931 158V147.818H493.56C494.353 147.818 495.009 147.962 495.529 148.251C496.049 148.539 496.439 148.933 496.697 149.434C496.956 149.931 497.085 150.491 497.085 151.114C497.085 151.741 496.954 152.304 496.692 152.805C496.434 153.302 496.043 153.696 495.519 153.988C494.999 154.276 494.344 154.42 493.555 154.42H491.06V153.118H493.416C493.917 153.118 494.323 153.032 494.634 152.859C494.946 152.684 495.174 152.445 495.32 152.143C495.466 151.842 495.539 151.499 495.539 151.114C495.539 150.73 495.466 150.388 495.32 150.09C495.174 149.792 494.944 149.558 494.629 149.389C494.318 149.22 493.907 149.136 493.396 149.136H491.467V158H489.931ZM498.767 158V150.364H500.204V151.577H500.283C500.422 151.166 500.668 150.843 501.019 150.607C501.374 150.369 501.775 150.249 502.222 150.249C502.315 150.249 502.424 150.253 502.55 150.259C502.68 150.266 502.781 150.274 502.854 150.284V151.706C502.794 151.689 502.688 151.671 502.535 151.651C502.383 151.628 502.23 151.616 502.078 151.616C501.727 151.616 501.413 151.691 501.138 151.84C500.867 151.986 500.651 152.19 500.492 152.452C500.333 152.71 500.253 153.005 500.253 153.337V158H498.767ZM507.083 158.154C506.367 158.154 505.742 157.99 505.209 157.662C504.675 157.334 504.261 156.875 503.966 156.285C503.671 155.695 503.523 155.005 503.523 154.217C503.523 153.424 503.671 152.732 503.966 152.138C504.261 151.545 504.675 151.085 505.209 150.756C505.742 150.428 506.367 150.264 507.083 150.264C507.799 150.264 508.424 150.428 508.957 150.756C509.491 151.085 509.905 151.545 510.2 152.138C510.495 152.732 510.643 153.424 510.643 154.217C510.643 155.005 510.495 155.695 510.2 156.285C509.905 156.875 509.491 157.334 508.957 157.662C508.424 157.99 507.799 158.154 507.083 158.154ZM507.088 156.906C507.552 156.906 507.937 156.784 508.241 156.538C508.546 156.293 508.772 155.967 508.918 155.559C509.067 155.151 509.141 154.702 509.141 154.212C509.141 153.724 509.067 153.277 508.918 152.869C508.772 152.458 508.546 152.129 508.241 151.88C507.937 151.631 507.552 151.507 507.088 151.507C506.621 151.507 506.233 151.631 505.925 151.88C505.62 152.129 505.393 152.458 505.244 152.869C505.098 153.277 505.025 153.724 505.025 154.212C505.025 154.702 505.098 155.151 505.244 155.559C505.393 155.967 505.62 156.293 505.925 156.538C506.233 156.784 506.621 156.906 507.088 156.906ZM512.302 150.364H513.789V158.497C513.789 159.008 513.696 159.438 513.51 159.79C513.328 160.141 513.056 160.408 512.695 160.59C512.337 160.772 511.894 160.864 511.367 160.864C511.314 160.864 511.265 160.864 511.218 160.864C511.169 160.864 511.117 160.862 511.064 160.859V159.581C511.11 159.581 511.152 159.581 511.188 159.581C511.222 159.581 511.26 159.581 511.303 159.581C511.654 159.581 511.908 159.487 512.063 159.298C512.222 159.112 512.302 158.842 512.302 158.487V150.364ZM513.038 149.185C512.779 149.185 512.557 149.099 512.372 148.927C512.189 148.751 512.098 148.542 512.098 148.3C512.098 148.055 512.189 147.846 512.372 147.674C512.557 147.498 512.779 147.411 513.038 147.411C513.296 147.411 513.517 147.498 513.699 147.674C513.885 147.846 513.977 148.055 513.977 148.3C513.977 148.542 513.885 148.751 513.699 148.927C513.517 149.099 513.296 149.185 513.038 149.185ZM519.08 158.154C518.327 158.154 517.679 157.993 517.136 157.672C516.595 157.347 516.178 156.891 515.883 156.305C515.591 155.715 515.445 155.024 515.445 154.232C515.445 153.449 515.591 152.76 515.883 152.163C516.178 151.567 516.589 151.101 517.116 150.766C517.646 150.432 518.266 150.264 518.975 150.264C519.406 150.264 519.824 150.335 520.228 150.478C520.632 150.621 520.995 150.844 521.317 151.149C521.638 151.454 521.892 151.85 522.077 152.337C522.263 152.821 522.356 153.41 522.356 154.102V154.629H516.286V153.516H520.899C520.899 153.125 520.82 152.778 520.661 152.477C520.501 152.172 520.278 151.931 519.989 151.756C519.704 151.58 519.37 151.492 518.985 151.492C518.567 151.492 518.203 151.595 517.891 151.8C517.583 152.003 517.344 152.268 517.175 152.596C517.01 152.921 516.927 153.274 516.927 153.655V154.525C516.927 155.035 517.016 155.469 517.195 155.827C517.378 156.185 517.631 156.459 517.956 156.648C518.281 156.833 518.66 156.926 519.094 156.926C519.376 156.926 519.633 156.886 519.865 156.807C520.097 156.724 520.298 156.601 520.467 156.439C520.636 156.277 520.765 156.076 520.854 155.837L522.261 156.091C522.149 156.505 521.946 156.868 521.655 157.18C521.366 157.488 521.004 157.728 520.566 157.901C520.132 158.07 519.636 158.154 519.08 158.154ZM527.222 158.154C526.483 158.154 525.846 157.987 525.313 157.652C524.782 157.314 524.375 156.848 524.09 156.255C523.805 155.662 523.662 154.982 523.662 154.217C523.662 153.441 523.808 152.757 524.1 152.163C524.391 151.567 524.802 151.101 525.333 150.766C525.863 150.432 526.488 150.264 527.207 150.264C527.787 150.264 528.304 150.372 528.758 150.587C529.212 150.799 529.578 151.098 529.857 151.482C530.138 151.867 530.306 152.316 530.359 152.83H528.912C528.833 152.472 528.65 152.163 528.365 151.905C528.084 151.646 527.706 151.517 527.232 151.517C526.817 151.517 526.454 151.626 526.143 151.845C525.835 152.061 525.594 152.369 525.422 152.77C525.25 153.168 525.164 153.638 525.164 154.182C525.164 154.739 525.248 155.219 525.417 155.624C525.586 156.028 525.825 156.341 526.133 156.563C526.445 156.785 526.811 156.896 527.232 156.896C527.513 156.896 527.769 156.845 527.997 156.742C528.229 156.636 528.423 156.485 528.579 156.29C528.738 156.094 528.849 155.859 528.912 155.584H530.359C530.306 156.078 530.145 156.518 529.877 156.906C529.608 157.294 529.249 157.599 528.798 157.821C528.35 158.043 527.825 158.154 527.222 158.154ZM535.513 150.364V151.557H531.342V150.364H535.513ZM532.461 148.534H533.947V155.758C533.947 156.046 533.99 156.263 534.076 156.409C534.163 156.552 534.274 156.649 534.409 156.702C534.549 156.752 534.699 156.777 534.862 156.777C534.981 156.777 535.086 156.769 535.175 156.752C535.265 156.736 535.334 156.722 535.384 156.712L535.652 157.94C535.566 157.973 535.444 158.007 535.284 158.04C535.125 158.076 534.926 158.096 534.688 158.099C534.297 158.106 533.932 158.036 533.594 157.891C533.256 157.745 532.983 157.519 532.774 157.214C532.565 156.91 532.461 156.527 532.461 156.066V148.534ZM542.757 152.228L541.409 152.467C541.353 152.294 541.264 152.13 541.141 151.974C541.022 151.819 540.859 151.691 540.654 151.592C540.448 151.492 540.191 151.442 539.883 151.442C539.462 151.442 539.111 151.537 538.829 151.726C538.547 151.911 538.407 152.152 538.407 152.447C538.407 152.702 538.501 152.907 538.69 153.063C538.879 153.219 539.184 153.347 539.605 153.446L540.818 153.724C541.52 153.887 542.044 154.137 542.389 154.475C542.734 154.813 542.906 155.252 542.906 155.793C542.906 156.25 542.773 156.658 542.508 157.016C542.246 157.37 541.88 157.649 541.409 157.851C540.942 158.053 540.4 158.154 539.784 158.154C538.929 158.154 538.231 157.972 537.691 157.607C537.15 157.239 536.819 156.717 536.696 156.041L538.133 155.822C538.223 156.197 538.407 156.48 538.685 156.673C538.963 156.862 539.326 156.956 539.774 156.956C540.261 156.956 540.65 156.855 540.942 156.653C541.234 156.447 541.38 156.197 541.38 155.902C541.38 155.663 541.29 155.463 541.111 155.3C540.935 155.138 540.665 155.015 540.301 154.933L539.008 154.649C538.296 154.487 537.769 154.228 537.427 153.874C537.089 153.519 536.92 153.07 536.92 152.526C536.92 152.076 537.046 151.681 537.298 151.343C537.55 151.005 537.898 150.741 538.342 150.553C538.786 150.36 539.295 150.264 539.868 150.264C540.694 150.264 541.343 150.443 541.817 150.801C542.291 151.156 542.604 151.631 542.757 152.228Z" fill="#23262F"/>
<circle cx="462" cy="181" r="7" fill="#6956E5"/>
<path d="M481.34 186.139C480.717 186.139 480.157 186.02 479.66 185.781C479.166 185.539 478.772 185.208 478.477 184.787C478.182 184.366 478.024 183.885 478.004 183.345H479.496C479.532 183.783 479.726 184.142 480.077 184.424C480.429 184.706 480.85 184.847 481.34 184.847C481.731 184.847 482.078 184.757 482.379 184.578C482.684 184.396 482.923 184.146 483.095 183.827C483.271 183.509 483.359 183.146 483.359 182.739C483.359 182.324 483.269 181.955 483.09 181.63C482.911 181.305 482.664 181.05 482.349 180.864C482.038 180.679 481.68 180.584 481.276 180.581C480.967 180.581 480.657 180.634 480.346 180.74C480.034 180.846 479.782 180.985 479.59 181.158L478.183 180.949L478.755 175.818H484.353V177.136H480.033L479.71 179.984H479.769C479.968 179.792 480.232 179.631 480.56 179.502C480.891 179.373 481.246 179.308 481.624 179.308C482.243 179.308 482.795 179.456 483.279 179.751C483.766 180.046 484.149 180.448 484.428 180.959C484.709 181.466 484.848 182.049 484.845 182.709C484.848 183.368 484.699 183.957 484.398 184.474C484.099 184.991 483.685 185.398 483.155 185.697C482.628 185.992 482.023 186.139 481.34 186.139ZM490.505 186V175.818H494.135C494.927 175.818 495.583 175.962 496.103 176.251C496.624 176.539 497.013 176.933 497.272 177.434C497.53 177.931 497.659 178.491 497.659 179.114C497.659 179.741 497.529 180.304 497.267 180.805C497.008 181.302 496.617 181.696 496.093 181.988C495.573 182.276 494.918 182.42 494.13 182.42H491.634V181.118H493.99C494.491 181.118 494.897 181.032 495.208 180.859C495.52 180.684 495.749 180.445 495.895 180.143C496.04 179.842 496.113 179.499 496.113 179.114C496.113 178.73 496.04 178.388 495.895 178.09C495.749 177.792 495.518 177.558 495.203 177.389C494.892 177.22 494.481 177.136 493.971 177.136H492.042V186H490.505ZM499.341 186V178.364H500.778V179.577H500.857C500.997 179.166 501.242 178.843 501.593 178.607C501.948 178.369 502.349 178.249 502.796 178.249C502.889 178.249 502.999 178.253 503.124 178.259C503.254 178.266 503.355 178.274 503.428 178.284V179.706C503.368 179.689 503.262 179.671 503.11 179.651C502.957 179.628 502.805 179.616 502.652 179.616C502.301 179.616 501.988 179.691 501.713 179.84C501.441 179.986 501.225 180.19 501.066 180.452C500.907 180.71 500.828 181.005 500.828 181.337V186H499.341ZM507.657 186.154C506.941 186.154 506.317 185.99 505.783 185.662C505.249 185.334 504.835 184.875 504.54 184.285C504.245 183.695 504.098 183.005 504.098 182.217C504.098 181.424 504.245 180.732 504.54 180.138C504.835 179.545 505.249 179.085 505.783 178.756C506.317 178.428 506.941 178.264 507.657 178.264C508.373 178.264 508.998 178.428 509.532 178.756C510.065 179.085 510.48 179.545 510.775 180.138C511.069 180.732 511.217 181.424 511.217 182.217C511.217 183.005 511.069 183.695 510.775 184.285C510.48 184.875 510.065 185.334 509.532 185.662C508.998 185.99 508.373 186.154 507.657 186.154ZM507.662 184.906C508.126 184.906 508.511 184.784 508.816 184.538C509.121 184.293 509.346 183.967 509.492 183.559C509.641 183.151 509.716 182.702 509.716 182.212C509.716 181.724 509.641 181.277 509.492 180.869C509.346 180.458 509.121 180.129 508.816 179.88C508.511 179.631 508.126 179.507 507.662 179.507C507.195 179.507 506.807 179.631 506.499 179.88C506.194 180.129 505.967 180.458 505.818 180.869C505.672 181.277 505.599 181.724 505.599 182.212C505.599 182.702 505.672 183.151 505.818 183.559C505.967 183.967 506.194 184.293 506.499 184.538C506.807 184.784 507.195 184.906 507.662 184.906ZM512.876 178.364H514.363V186.497C514.363 187.008 514.27 187.438 514.084 187.79C513.902 188.141 513.63 188.408 513.269 188.59C512.911 188.772 512.469 188.864 511.942 188.864C511.889 188.864 511.839 188.864 511.792 188.864C511.743 188.864 511.691 188.862 511.638 188.859V187.581C511.685 187.581 511.726 187.581 511.763 187.581C511.796 187.581 511.834 187.581 511.877 187.581C512.228 187.581 512.482 187.487 512.638 187.298C512.797 187.112 512.876 186.842 512.876 186.487V178.364ZM513.612 177.185C513.354 177.185 513.131 177.099 512.946 176.927C512.764 176.751 512.672 176.542 512.672 176.3C512.672 176.055 512.764 175.846 512.946 175.674C513.131 175.498 513.354 175.411 513.612 175.411C513.871 175.411 514.091 175.498 514.273 175.674C514.459 175.846 514.552 176.055 514.552 176.3C514.552 176.542 514.459 176.751 514.273 176.927C514.091 177.099 513.871 177.185 513.612 177.185ZM519.654 186.154C518.901 186.154 518.253 185.993 517.71 185.672C517.17 185.347 516.752 184.891 516.457 184.305C516.165 183.715 516.02 183.024 516.02 182.232C516.02 181.449 516.165 180.76 516.457 180.163C516.752 179.567 517.163 179.101 517.69 178.766C518.22 178.432 518.84 178.264 519.549 178.264C519.98 178.264 520.398 178.335 520.802 178.478C521.207 178.621 521.569 178.844 521.891 179.149C522.212 179.454 522.466 179.85 522.652 180.337C522.837 180.821 522.93 181.41 522.93 182.102V182.629H516.86V181.516H521.473C521.473 181.125 521.394 180.778 521.235 180.477C521.076 180.172 520.852 179.931 520.564 179.756C520.279 179.58 519.944 179.492 519.559 179.492C519.142 179.492 518.777 179.595 518.466 179.8C518.157 180.003 517.919 180.268 517.75 180.596C517.584 180.921 517.501 181.274 517.501 181.655V182.525C517.501 183.035 517.591 183.469 517.77 183.827C517.952 184.185 518.205 184.459 518.53 184.648C518.855 184.833 519.234 184.926 519.669 184.926C519.95 184.926 520.207 184.886 520.439 184.807C520.671 184.724 520.872 184.601 521.041 184.439C521.21 184.277 521.339 184.076 521.429 183.837L522.836 184.091C522.723 184.505 522.521 184.868 522.229 185.18C521.941 185.488 521.578 185.728 521.14 185.901C520.706 186.07 520.211 186.154 519.654 186.154ZM527.796 186.154C527.057 186.154 526.421 185.987 525.887 185.652C525.357 185.314 524.949 184.848 524.664 184.255C524.379 183.662 524.236 182.982 524.236 182.217C524.236 181.441 524.382 180.757 524.674 180.163C524.965 179.567 525.376 179.101 525.907 178.766C526.437 178.432 527.062 178.264 527.781 178.264C528.361 178.264 528.878 178.372 529.332 178.587C529.786 178.799 530.153 179.098 530.431 179.482C530.713 179.867 530.88 180.316 530.933 180.83H529.486C529.407 180.472 529.224 180.163 528.939 179.905C528.658 179.646 528.28 179.517 527.806 179.517C527.392 179.517 527.029 179.626 526.717 179.845C526.409 180.061 526.169 180.369 525.996 180.77C525.824 181.168 525.738 181.638 525.738 182.182C525.738 182.739 525.822 183.219 525.991 183.624C526.16 184.028 526.399 184.341 526.707 184.563C527.019 184.785 527.385 184.896 527.806 184.896C528.088 184.896 528.343 184.845 528.572 184.742C528.804 184.636 528.997 184.485 529.153 184.29C529.312 184.094 529.423 183.859 529.486 183.584H530.933C530.88 184.078 530.719 184.518 530.451 184.906C530.182 185.294 529.823 185.599 529.372 185.821C528.925 186.043 528.399 186.154 527.796 186.154ZM536.087 178.364V179.557H531.916V178.364H536.087ZM533.035 176.534H534.521V183.758C534.521 184.046 534.564 184.263 534.651 184.409C534.737 184.552 534.848 184.649 534.984 184.702C535.123 184.752 535.274 184.777 535.436 184.777C535.555 184.777 535.66 184.769 535.749 184.752C535.839 184.736 535.908 184.722 535.958 184.712L536.227 185.94C536.14 185.973 536.018 186.007 535.859 186.04C535.7 186.076 535.501 186.096 535.262 186.099C534.871 186.106 534.506 186.036 534.168 185.891C533.83 185.745 533.557 185.519 533.348 185.214C533.139 184.91 533.035 184.527 533.035 184.066V176.534ZM543.331 180.228L541.984 180.467C541.927 180.294 541.838 180.13 541.715 179.974C541.596 179.819 541.433 179.691 541.228 179.592C541.022 179.492 540.766 179.442 540.457 179.442C540.036 179.442 539.685 179.537 539.403 179.726C539.122 179.911 538.981 180.152 538.981 180.447C538.981 180.702 539.075 180.907 539.264 181.063C539.453 181.219 539.758 181.347 540.179 181.446L541.392 181.724C542.095 181.887 542.618 182.137 542.963 182.475C543.308 182.813 543.48 183.252 543.48 183.793C543.48 184.25 543.348 184.658 543.082 185.016C542.821 185.37 542.454 185.649 541.984 185.851C541.516 186.053 540.974 186.154 540.358 186.154C539.503 186.154 538.805 185.972 538.265 185.607C537.725 185.239 537.393 184.717 537.271 184.041L538.707 183.822C538.797 184.197 538.981 184.48 539.259 184.673C539.538 184.862 539.901 184.956 540.348 184.956C540.835 184.956 541.225 184.855 541.516 184.653C541.808 184.447 541.954 184.197 541.954 183.902C541.954 183.663 541.864 183.463 541.685 183.3C541.51 183.138 541.24 183.015 540.875 182.933L539.582 182.649C538.87 182.487 538.343 182.228 538.001 181.874C537.663 181.519 537.494 181.07 537.494 180.526C537.494 180.076 537.62 179.681 537.872 179.343C538.124 179.005 538.472 178.741 538.916 178.553C539.36 178.36 539.869 178.264 540.442 178.264C541.268 178.264 541.917 178.443 542.391 178.801C542.865 179.156 543.179 179.631 543.331 180.228Z" fill="#23262F"/>
<defs>
<filter id="filter0_d_2_72" x="0" y="0" width="837" height="503" filterUnits="userSpaceOnUse" color-interpolation-filters="sRGB">
<feFlood flood-opacity="0" result="BackgroundImageFix"/>
<feColorMatrix in="SourceAlpha" type="matrix" values="0 0 0 0 0 0 0 0 0 0 0 0 0 0 0 0 0 0 127 0" result="hardAlpha"/>
<feMorphology radius="9" operator="dilate" in="SourceAlpha" result="effect1_dropShadow_2_72"/>
<feOffset dy="4"/>
<feGaussianBlur stdDeviation="19.5"/>
<feComposite in2="hardAlpha" operator="out"/>
<feColorMatrix type="matrix" values="0 0 0 0 0.317647 0 0 0 0 0.270588 0 0 0 0 0.623529 0 0 0 0.09 0"/>
<feBlend mode="normal" in2="BackgroundImageFix" result="effect1_dropShadow_2_72"/>
<feBlend mode="normal" in="SourceGraphic" in2="effect1_dropShadow_2_72" result="shape"/>
</filter>
<filter id="filter1_f_2_72" x="104" y="250.979" width="677.001" height="106.6" filterUnits="userSpaceOnUse" color-interpolation-filters="sRGB">
<feFlood flood-opacity="0" result="BackgroundImageFix"/>
<feBlend mode="normal" in="SourceGraphic" in2="BackgroundImageFix" result="shape"/>
<feGaussianBlur stdDeviation="7" result="effect1_foregroundBlur_2_72"/>
</filter>
<filter id="filter2_f_2_72" x="104" y="226.998" width="677.001" height="92.0016" filterUnits="userSpaceOnUse" color-interpolation-filters="sRGB">
<feFlood flood-opacity="0" result="BackgroundImageFix"/>
<feBlend mode="normal" in="SourceGraphic" in2="BackgroundImageFix" result="shape"/>
<feGaussianBlur stdDeviation="7" result="effect1_foregroundBlur_2_72"/>
</filter>
<filter id="filter3_d_2_72" x="489" y="227" width="22" height="22" filterUnits="userSpaceOnUse" color-interpolation-filters="sRGB">
<feFlood flood-opacity="0" result="BackgroundImageFix"/>
<feColorMatrix in="SourceAlpha" type="matrix" values="0 0 0 0 0 0 0 0 0 0 0 0 0 0 0 0 0 0 127 0" result="hardAlpha"/>
<feOffset dy="2"/>
<feGaussianBlur stdDeviation="2"/>
<feColorMatrix type="matrix" values="0 0 0 0 0.268354 0 0 0 0 0.268354 0 0 0 0 0.31049 0 0 0 0.15 0"/>
<feBlend mode="normal" in2="BackgroundImageFix" result="effect1_dropShadow_2_72"/>
<feBlend mode="normal" in="SourceGraphic" in2="effect1_dropShadow_2_72" result="shape"/>
</filter>
<filter id="filter4_d_2_72" x="407" y="105" width="186" height="161" filterUnits="userSpaceOnUse" color-interpolation-filters="sRGB">
<feFlood flood-opacity="0" result="BackgroundImageFix"/>
<feColorMatrix in="SourceAlpha" type="matrix" values="0 0 0 0 0 0 0 0 0 0 0 0 0 0 0 0 0 0 127 0" result="hardAlpha"/>
<feOffset dy="10"/>
<feGaussianBlur stdDeviation="16"/>
<feComposite in2="hardAlpha" operator="out"/>
<feColorMatrix type="matrix" values="0 0 0 0 0.121569 0 0 0 0 0.184314 0 0 0 0 0.27451 0 0 0 0.12 0"/>
<feBlend mode="normal" in2="BackgroundImageFix" result="effect1_dropShadow_2_72"/>
<feBlend mode="normal" in="SourceGraphic" in2="effect1_dropShadow_2_72" result="shape"/>
</filter>
</defs>
</svg>
